<?xml version="1.0" encoding="UTF-8"?>
<svg id="Layer_1" data-name="Layer 1" xmlns="http://www.w3.org/2000/svg" viewBox="0 0 379.32 352.93">
  <defs>
    <style>
      .cls-1 {
        fill: #353844;
      }

      .cls-2 {
        fill: #16191f;
      }

      .cls-3 {
        fill: #918386;
      }

      .cls-4 {
        fill: #353b46;
      }

      .cls-5 {
        fill: #b1afae;
      }

      .cls-6 {
        fill: #898d8f;
      }

      .cls-7 {
        fill: #999da3;
      }

      .cls-8 {
        fill: #63676f;
      }

      .cls-9 {
        fill: #c7cbd2;
      }

      .cls-10 {
        fill: #61616d;
      }

      .cls-11 {
        fill: #3d393c;
      }

      .cls-12 {
        fill: #4e4e59;
      }

      .cls-13 {
        fill: #e49778;
      }

      .cls-14 {
        fill: #14151b;
      }

      .cls-15 {
        fill: #555964;
      }

      .cls-16 {
        fill: #2d323e;
      }

      .cls-17 {
        fill: #80807f;
      }

      .cls-18 {
        fill: #b3afb0;
      }

      .cls-19 {
        fill: #9c8e93;
      }

      .cls-20 {
        fill: #323642;
      }

      .cls-21 {
        fill: #15171f;
      }

      .cls-22 {
        fill: #5b5e68;
      }

      .cls-23 {
        fill: #6e7378;
      }

      .cls-24 {
        fill: #cec0bd;
      }

      .cls-25 {
        fill: #c9775d;
      }

      .cls-26 {
        fill: #515a56;
      }

      .cls-27 {
        fill: #1e232f;
      }

      .cls-28 {
        fill: #6a6a71;
      }

      .cls-29 {
        fill: #64676d;
      }

      .cls-30 {
        fill: #22262b;
      }

      .cls-31 {
        fill: #2a2b33;
      }

      .cls-32 {
        fill: #23252c;
      }

      .cls-33 {
        fill: #3f464e;
      }

      .cls-34 {
        fill: #4d515c;
      }

      .cls-35 {
        fill: #929295;
      }

      .cls-36 {
        fill: #434651;
      }

      .cls-37 {
        fill: #3d404b;
      }

      .cls-38 {
        fill: #1e2333;
      }

      .cls-39 {
        fill: #d8dadf;
      }

      .cls-40 {
        fill: #3f464d;
      }

      .cls-41 {
        fill: #383a45;
      }

      .cls-42 {
        fill: #908f95;
      }

      .cls-43 {
        fill: #181e2a;
      }

      .cls-44 {
        fill: #fffcfa;
      }

      .cls-45 {
        fill: #191d2d;
      }

      .cls-46 {
        fill: #11181d;
      }

      .cls-47 {
        fill: #f4f2f3;
      }

      .cls-48 {
        fill: #353845;
      }

      .cls-49 {
        fill: #fefefe;
      }

      .cls-50 {
        fill: #60626a;
      }

      .cls-51 {
        fill: #32343d;
      }

      .cls-52 {
        fill: #2c2f3e;
      }

      .cls-53 {
        fill: #353744;
      }

      .cls-54 {
        fill: #bcc0ce;
      }

      .cls-55 {
        fill: #5d6063;
      }

      .cls-56 {
        fill: #3e4049;
      }

      .cls-57 {
        fill: #232930;
      }

      .cls-58 {
        fill: #3a3c48;
      }

      .cls-59 {
        fill: #503e44;
      }

      .cls-60 {
        fill: #817171;
      }

      .cls-61 {
        fill: #454954;
      }

      .cls-62 {
        fill: #2e313f;
      }

      .cls-63 {
        fill: #7d7c81;
      }

      .cls-64 {
        fill: #454550;
      }

      .cls-65 {
        fill: #f9f8f9;
      }

      .cls-66 {
        fill: #a8aaac;
      }

      .cls-67 {
        fill: #f8f7f6;
      }

      .cls-68 {
        fill: #fbfcf8;
      }

      .cls-69 {
        fill: #3f3837;
      }

      .cls-70 {
        fill: #484a56;
      }

      .cls-71 {
        fill: #f2f1f2;
      }

      .cls-72 {
        fill: #141b24;
      }

      .cls-73 {
        fill: #383c48;
      }

      .cls-74 {
        fill: #82828a;
      }

      .cls-75 {
        fill: #7f7d81;
      }

      .cls-76 {
        fill: #fff;
      }

      .cls-77 {
        fill: #4c4a4f;
      }

      .cls-78 {
        fill: #706f74;
      }

      .cls-79 {
        fill: #aeacac;
      }

      .cls-80 {
        fill: #ced0d3;
      }

      .cls-81 {
        fill: #2a323a;
      }

      .cls-82 {
        fill: #828084;
      }

      .cls-83 {
        fill: #a39fa1;
      }

      .cls-84 {
        fill: #2a2d3b;
      }

      .cls-85 {
        fill: #182128;
      }

      .cls-86 {
        fill: #3a3d49;
      }

      .cls-87 {
        fill: #7e797d;
      }

      .cls-88 {
        fill: #b4bbbb;
      }

      .cls-89 {
        fill: #a8a9ae;
      }

      .cls-90 {
        fill: #4a4b56;
      }

      .cls-91 {
        fill: #f5f4f4;
      }

      .cls-92 {
        fill: #5c6066;
      }

      .cls-93 {
        fill: #4a4d55;
      }

      .cls-94 {
        fill: #aa7668;
      }

      .cls-95 {
        fill: #394648;
      }

      .cls-96 {
        fill: #3e424a;
      }

      .cls-97 {
        fill: #50555e;
      }

      .cls-98 {
        fill: #333745;
      }

      .cls-99 {
        fill: #222737;
      }

      .cls-100 {
        fill: #444552;
      }

      .cls-101 {
        fill: #c4c0be;
      }

      .cls-102 {
        fill: #353644;
      }

      .cls-103 {
        fill: #3d424e;
      }

      .cls-104 {
        fill: #c7cbce;
      }

      .cls-105 {
        fill: #a9a8b3;
      }

      .cls-106 {
        fill: #2e353e;
      }

      .cls-107 {
        fill: #9c9f9d;
      }

      .cls-108 {
        fill: #b36750;
      }

      .cls-109 {
        fill: #30343a;
      }

      .cls-110 {
        fill: #474a56;
      }

      .cls-111 {
        fill: #3f414e;
      }

      .cls-112 {
        fill: #aba9b4;
      }

      .cls-113 {
        fill: #222736;
      }

      .cls-114 {
        fill: #3f424d;
      }

      .cls-115 {
        fill: #171922;
      }

      .cls-116 {
        fill: #292e34;
      }

      .cls-117 {
        fill: #141319;
      }

      .cls-118 {
        fill: #1f2731;
      }

      .cls-119 {
        fill: #3b4048;
      }

      .cls-120 {
        fill: #8d8d91;
      }

      .cls-121 {
        fill: #393d49;
      }

      .cls-122 {
        fill: #5e5f68;
      }

      .cls-123 {
        fill: #717279;
      }

      .cls-124 {
        fill: #383a49;
      }

      .cls-125 {
        fill: #898e94;
      }

      .cls-126 {
        fill: #4f5055;
      }

      .cls-127 {
        fill: #19191f;
      }

      .cls-128 {
        fill: #1f2932;
      }

      .cls-129 {
        fill: #46454c;
      }

      .cls-130 {
        fill: #424148;
      }

      .cls-131 {
        fill: #60626b;
      }

      .cls-132 {
        fill: #aaa8ab;
      }

      .cls-133 {
        fill: #3b3f49;
      }

      .cls-134 {
        fill: #1d1f2d;
      }

      .cls-135 {
        fill: #2e363c;
      }

      .cls-136 {
        fill: #292e3d;
      }

      .cls-137 {
        fill: #434652;
      }

      .cls-138 {
        fill: #6d6e73;
      }

      .cls-139 {
        fill: #1d1f28;
      }

      .cls-140 {
        fill: #494a57;
      }

      .cls-141 {
        fill: #51585c;
      }

      .cls-142 {
        fill: #bcbab8;
      }

      .cls-143 {
        fill: #79817f;
      }

      .cls-144 {
        fill: #1f212f;
      }

      .cls-145 {
        fill: #605d5c;
      }

      .cls-146 {
        fill: #383a46;
      }

      .cls-147 {
        fill: #121211;
      }

      .cls-148 {
        fill: #1c1f2f;
      }

      .cls-149 {
        fill: #595b65;
      }

      .cls-150 {
        fill: #4b4f59;
      }

      .cls-151 {
        fill: #40444f;
      }

      .cls-152 {
        fill: #d0c2bd;
      }

      .cls-153 {
        fill: #40424e;
      }

      .cls-154 {
        fill: #bab9bf;
      }

      .cls-155 {
        fill: #88898b;
      }

      .cls-156 {
        fill: #363845;
      }

      .cls-157 {
        fill: #dfe2e6;
      }

      .cls-158 {
        fill: #acacae;
      }

      .cls-159 {
        fill: #3e434f;
      }

      .cls-160 {
        fill: #323442;
      }

      .cls-161 {
        fill: #909392;
      }

      .cls-162 {
        fill: #bfbebe;
      }

      .cls-163 {
        fill: #a56054;
      }

      .cls-164 {
        fill: #4d5254;
      }

      .cls-165 {
        fill: #dcdfe3;
      }

      .cls-166 {
        fill: #494c57;
      }

      .cls-167 {
        fill: #544748;
      }

      .cls-168 {
        fill: #8b9097;
      }

      .cls-169 {
        fill: #7e818b;
      }

      .cls-170 {
        fill: #323842;
      }

      .cls-171 {
        fill: #30333f;
      }

      .cls-172 {
        fill: #7c7b83;
      }

      .cls-173 {
        fill: #85878e;
      }

      .cls-174 {
        fill: #545560;
      }

      .cls-175 {
        fill: #40434e;
      }

      .cls-176 {
        fill: #56575e;
      }

      .cls-177 {
        fill: #b7b9bc;
      }

      .cls-178 {
        fill: #aaa9ac;
      }

      .cls-179 {
        fill: #11181f;
      }

      .cls-180 {
        fill: #4d494a;
      }

      .cls-181 {
        fill: #37383f;
      }

      .cls-182 {
        fill: #424b4d;
      }

      .cls-183 {
        fill: #4b565c;
      }

      .cls-184 {
        fill: #4d4f57;
      }

      .cls-185 {
        fill: #6a6f77;
      }

      .cls-186 {
        fill: #f5f3f3;
      }

      .cls-187 {
        fill: #5d636a;
      }

      .cls-188 {
        fill: #8e9497;
      }

      .cls-189 {
        fill: #414450;
      }

      .cls-190 {
        fill: #696b76;
      }

      .cls-191 {
        fill: #f6c3b0;
      }

      .cls-192 {
        fill: #848487;
      }

      .cls-193 {
        fill: #444043;
      }

      .cls-194 {
        fill: #3a3e4a;
      }

      .cls-195 {
        fill: #363945;
      }

      .cls-196 {
        fill: #494c59;
      }

      .cls-197 {
        fill: #a8a9b0;
      }

      .cls-198 {
        fill: #858386;
      }

      .cls-199 {
        fill: #f5f1f1;
      }

      .cls-200 {
        fill: #b2b4b5;
      }

      .cls-201 {
        fill: #3e424d;
      }

      .cls-202 {
        fill: #d9dde1;
      }

      .cls-203 {
        fill: #333742;
      }

      .cls-204 {
        fill: #6c433f;
      }

      .cls-205 {
        fill: #d0cac1;
      }

      .cls-206 {
        fill: #232534;
      }

      .cls-207 {
        fill: #171920;
      }

      .cls-208 {
        fill: #3f404c;
      }

      .cls-209 {
        fill: #be7157;
      }

      .cls-210 {
        fill: #818084;
      }

      .cls-211 {
        fill: #b77c68;
      }

      .cls-212 {
        fill: #90949b;
      }

      .cls-213 {
        fill: #c5775b;
      }

      .cls-214 {
        fill: #2e333c;
      }

      .cls-215 {
        fill: #1f2634;
      }

      .cls-216 {
        fill: #c8c8c8;
      }

      .cls-217 {
        fill: #3c4748;
      }

      .cls-218 {
        fill: #697173;
      }

      .cls-219 {
        fill: #2a2c3a;
      }

      .cls-220 {
        fill: #232b39;
      }

      .cls-221 {
        fill: #60616a;
      }

      .cls-222 {
        fill: #8e8f95;
      }

      .cls-223 {
        fill: #52545b;
      }

      .cls-224 {
        fill: #3e3e47;
      }

      .cls-225 {
        fill: #474b53;
      }

      .cls-226 {
        fill: #1a212e;
      }

      .cls-227 {
        fill: #2a2d3a;
      }

      .cls-228 {
        fill: #5a5b5f;
      }

      .cls-229 {
        fill: #1d202e;
      }

      .cls-230 {
        fill: #8c898a;
      }

      .cls-231 {
        fill: #bec2bf;
      }

      .cls-232 {
        fill: #32333d;
      }

      .cls-233 {
        fill: #222633;
      }

      .cls-234 {
        fill: #c2cdca;
      }

      .cls-235 {
        fill: #3c3e4b;
      }

      .cls-236 {
        fill: #4b4e5a;
      }

      .cls-237 {
        fill: #a25f51;
      }

      .cls-238 {
        fill: #6a6d72;
      }

      .cls-239 {
        fill: #a3908a;
      }

      .cls-240 {
        fill: #70757c;
      }

      .cls-241 {
        fill: #b3b5b4;
      }

      .cls-242 {
        fill: #a8a59f;
      }

      .cls-243 {
        fill: #12161d;
      }

      .cls-244 {
        fill: #434751;
      }

      .cls-245 {
        fill: #485657;
      }

      .cls-246 {
        fill: #c2c1c4;
      }

      .cls-247 {
        fill: #af6550;
      }

      .cls-248 {
        fill: #161920;
      }

      .cls-249 {
        fill: #f4e7dc;
      }

      .cls-250 {
        fill: #767a81;
      }

      .cls-251 {
        fill: #fcfcfc;
      }

      .cls-252 {
        fill: #78777a;
      }

      .cls-253 {
        fill: #313443;
      }

      .cls-254 {
        fill: #3b3e4b;
      }

      .cls-255 {
        fill: #484952;
      }

      .cls-256 {
        fill: #464753;
      }

      .cls-257 {
        fill: #323647;
      }

      .cls-258 {
        fill: #565762;
      }

      .cls-259 {
        fill: #afacad;
      }

      .cls-260 {
        fill: #5a6264;
      }

      .cls-261 {
        fill: #24262f;
      }

      .cls-262 {
        fill: #1e2531;
      }

      .cls-263 {
        fill: #54575f;
      }

      .cls-264 {
        fill: #feffff;
      }

      .cls-265 {
        fill: #161d24;
      }

      .cls-266 {
        fill: #949395;
      }

      .cls-267 {
        fill: #2e333e;
      }

      .cls-268 {
        fill: #aa9692;
      }

      .cls-269 {
        fill: #2e2e34;
      }

      .cls-270 {
        fill: #b9b7b6;
      }

      .cls-271 {
        fill: #797c82;
      }

      .cls-272 {
        fill: #252933;
      }

      .cls-273 {
        fill: #212528;
      }

      .cls-274 {
        fill: #c16f55;
      }

      .cls-275 {
        fill: #7e7d7f;
      }

      .cls-276 {
        fill: #6e6c6e;
      }

      .cls-277 {
        fill: #c97a61;
      }

      .cls-278 {
        fill: #434b51;
      }

      .cls-279 {
        fill: #454854;
      }

      .cls-280 {
        fill: #373837;
      }

      .cls-281 {
        fill: #4d4f54;
      }

      .cls-282 {
        fill: #2f2633;
      }

      .cls-283 {
        fill: #898d95;
      }

      .cls-284 {
        fill: #8f9499;
      }

      .cls-285 {
        fill: #292e35;
      }

      .cls-286 {
        fill: #b36e52;
      }

      .cls-287 {
        fill: #f1eff0;
      }

      .cls-288 {
        fill: #596064;
      }

      .cls-289 {
        fill: #78777b;
      }

      .cls-290 {
        fill: #969495;
      }

      .cls-291 {
        fill: #5f656c;
      }

      .cls-292 {
        fill: #3f3c44;
      }

      .cls-293 {
        fill: #5c5e5c;
      }

      .cls-294 {
        fill: #9e9d9f;
      }

      .cls-295 {
        fill: #64656d;
      }

      .cls-296 {
        fill: #e8e8ec;
      }

      .cls-297 {
        fill: #595d64;
      }

      .cls-298 {
        fill: #9f9fa0;
      }
    </style>
  </defs>
  <g id="Generative_Object" data-name="Generative Object">
    <g>
      <path class="cls-21" d="M377.87,343.72l-13.85.17c-.62,0-2.08-.08-1.94-1.01.19-1.3,3.55-7.61,6.82-6.25,2.47,1.02,10.06,3.92,10.4,5.56.1.49-.43,1.51-1.43,1.53Z"/>
      <path class="cls-105" d="M376.6,341.59c-3.46.53-6.03.03-8.25-1.81-.31-.26-1.14-.07-1.37-.5-.25-.48-.03-.93.33-1.18,1.34-.93,7.5,3.35,9.29,3.49Z"/>
    </g>
    <g>
      <path class="cls-139" d="M346.36,344.13c-1.35.03-2.75.85-3.38-.67l5.89-.13c.42-1.89,1.73-4.39,3.95-4.78,1.71-.3,7.43,1.74,6.98,4.12-.14.74-1.14,1.18-2.15,1.21l-11.28.25Z"/>
      <path class="cls-54" d="M357.8,341.24c-2.06.97-3.65.01-5.05-1.17,2-.02,3.3.85,5.05,1.17Z"/>
    </g>
    <g>
      <path class="cls-76" d="M118.32,346.79c-5.99,2.03-5.6-.25-6.81-.14-3.02.27-15.1-1.03-11.34-1.69,1.06-.18,2.28.34,2.57-.57.78-.19,2.12.5,2.44-.49h1.95c1.36,0,2.61.54,3.91,0,.14-.06.33.02.49,0l5.52-.61c.54,1.33.5,2.68,1.26,3.5Z"/>
      <path class="cls-126" d="M111.05,343.91c-1.3.54-2.55,0-3.91,0,.86-.83,3.05-.83,3.91,0Z"/>
      <path class="cls-55" d="M105.19,343.91c-.32.99-1.66.3-2.44.49.31-.97,1.66-.49,2.44-.49Z"/>
      <path class="cls-281" d="M114.01,345.88c-1.2.61-2.45.47-3.5-.31,1.24-.76,2.33-.83,3.5.31Z"/>
    </g>
    <g>
      <path class="cls-115" d="M293.27,283.86c1.13,2.74.95,7.13-1.28,7.84-.38.12-1.26-.02-1.67-.63-2.17-3.19-1.77-8.23.75-8.75.86-.18,1.79.56,2.19,1.53Z"/>
      <path class="cls-112" d="M291.91,290.31c-.91-2.26-1.51-4.3-.52-6.6,1.44,2.01,1.63,4.39.52,6.6Z"/>
    </g>
    <g>
      <path class="cls-127" d="M267.78,288.46c-.67,1.19-2.18,3.65-3.71,3.03-1.83-.74-.54-3.55.22-4.63.81-1.15,1.53-1.88,2.77-1.39.77.31,1.6,1.44.72,2.99Z"/>
      <path class="cls-296" d="M264.86,289.13c.59-.85.88-1.63,1.2-2.38,1.13.7.47.9.35,1.27-.24.78-.52,1.42-1.55,1.11Z"/>
    </g>
    <g>
      <g>
        <g>
          <path class="cls-243" d="M189.28,167.62c0-2.15,1.17,6.06-.82,4.8-.18-.12-.05-.46-.48-.93-.37.32-.23.71-.47,1.01-.37.47-.68.4-1.25.41-2.61-2.79-1.08-3.21-5.91-3.2l-59.44.13-116.88.35c-1.13,1.41-.85,2.75-1.41,3.76-.04.24-.12.76,0,.98-.69.14-1.04-.05-1.02-.74.02-.87,1.69-2.32.79-2.8l1.9-2.03c-.53-.65-1.2-.14-1.74-.36l186.73-1.38Z"/>
          <path class="cls-137" d="M12.93,173.9c.23.36-.12.6-.35.58-.33-.03-.97-.22-1.25.28.38,1.1,1.86,1.44,1.58,2.64-.8-.02-1.29,1.22-1.03,1.78.43.95,1.15,1.3,2.07,1.41.58.4-.08,1.23.8,1.61,3.5-.87,6.67.21,9.7,1.39l2.21.79c.84-.38,14.19,4.22,13.43,3.59.73.6,1.21,1.14,1.15,2.1,1.21-2.06,3.6,1.24,6.81.49,0,.19-.05.76.22.75.22,0,.59-.53.96.21.47.08.68-.23.84-.13.22.14.45.72.93.75.45.02.51-.54.71-.6.21-.07.4.53.79.43-.04,1.01.26,1.54,1.17,1.57,1.08.04,1.6.11,2.39-1.19.79,1,.45,2.07.82,3.05l-5.59-1.29c.21-.84.03-1.59-.46-.44-2.96-.26-5.81-1.44-8.67-2.5-1.54-.58-3.24-.47-4.43-1.39.2-1.44-.36-1.36-.7.01l-32.81-9.38c.72-1.73-.16-.72-.81-.56-.88-2.16-.14-3.78.15-5.57-.18-1,8.9-.38,9.36-.38Z"/>
          <path class="cls-78" d="M173.07,210.58c.11,1.17.1,2.5,1.43,2.85.27.53.66,1.28.39,1.91,2.58.4,1.18,2.48,3.03,3.99-.51.58.63,1.27.46,1.9-1.02,3.85-5.39-3.51-6.59-3.63,1.25-.77-.26-1.26-.24-1.98.88-.55-2.35-1.47-3.32-2.66.3-.2.82-.61,1.03-.96s-.21-1.19-.53-1.49c.63-.92,1.46-2.22,2.84-2.27.49-.02.92,1.24.59,1.3-.7.12-.75.63-.57,1.25.29,1.03.2-.53,1.49-.21Z"/>
          <path class="cls-223" d="M141.85,173.49c.18.65-.12,1.27-.75,1.54-.52.22-1.13.36-1.72.31,0-.58-1.69-.74-1.92-.27-.61,1.28-6.9,1.76-7.92.44.14-.71.21-1.41.09-2.07l12.21.06Z"/>
          <g>
            <path class="cls-28" d="M90.58,173.65c.37.65.19,2.04.95,2.46.96.52,1.72-.1,1.99-.79.21-.52.44-1.06.34-1.67l35.76-.21c.12.66.05,1.37-.09,2.07,1.01,1.32,7.31.85,7.92-.44-.04.26.51.92.72.74.25-.21.88-.5,1.19-.47.59.05,1.2-.09,1.72-.31.63-.27.93-.88.75-1.54,6.79.03,13.71-.89,20.48-.07,7.62.92,15.57.5,23.62.4-.12,8.77-1.06,17.23-1.95,26.01-.16,1.56-1.02,2.85-.88,4.22.29,2.71-1.78,11.16-2.51,13.7-.21-.02-.57.18-.69.39-.09.17.16.69-.29.84-.78.27-1.45-.24-1.72.35-1.85-1.51-.45-3.59-3.03-3.99.27-.63-.12-1.38-.39-1.91.61-1.18-.43-2.18-1.43-2.85-1.29-.32-1.2,1.23-1.49.21-.18-.62-.12-1.13.57-1.25.34-.06-.1-1.31-.59-1.3-1.37.05-2.21,1.35-2.84,2.27.89.83-1.26-1.08-1.5-.5-.13.31.61.67.44.86-.99,1.18.17,1.61.56,2.09.97,1.19,4.19,2.11,3.32,2.66-.58.46-1.27-.24-1.72-.72-.95,1.02-.35,1.96-.73,3.05-2.15-.06-3.29-1.45-4.73-2.38-.75-.48-1.87-1.08-3.07-.92-.84.12-1.6,1.23-1.97,1.75-3.2.09.1,1.16-2.39,1.02.16-.61-.15-.98-.71-.9-.48.07-1.07-.11-1.35.25-.4.51.15,1.03.08,1.69-.1.96-1.53,1.5-1.14,2.48.22.55-.19.86-.51,1.22-.45.5-.76.32-1.11.23-.72-.18-.83-1.59-.36-2.1,1.06-1.14,2.68-2.41,1.43-4.36-.24-.37-.79.4-.72.73.06.27.7.81.44,1.12-.54.64-1.85.75-1.97,1.52-.02-.53-.45-.69-.74-.88-.63-.4-1.11.11-1.38.42,1.08-1.62-4.01.06-3.65-.29-.46.46-.7.88-.53,1.22.49,1.05,3.53,2.15,4.08,1.28-.24-.8.17-.85.37-.49.13.23-.16.54.43.75-.33.75-.14,2.08-1,2.75.57.41.61.58.63.72-3.69-.81-6.92-3.02-10.8-4.25l-24.89-7.9-34.54-9.99-12.36-3.67c.1-.62.1-1.35-.75-.72-.44-.4-1.04-.38-1.22-.62-.21-.29,1.45-2.42-.02-1.49-.43.28-.4.86-.61,1.18-.9.03-2.34-.35-3.15-.95-.13-.1-.32-1.43-.52-.71-.27.98-.58.95-.72-.65-.58.61-.26,1.07-1.17.97-.75-.08-.98-.47-1.56-.61-.37-.98-.03-2.05-.82-3.05-.79,1.3-1.31,1.23-2.39,1.19-.91-.03-1.2-.56-1.17-1.57.29-.08.7-.44.7-.72,0-.34-1.03-.47-1.32-.8-.91-1,0-3.26-1.27-3.69-1.06-.36-1.22-1.42-2.08-1.43-.63,0-1.75.25-2.3,1.01.68,1.08,1.82,3.08,1.82,4.22-3.21.75-5.6-2.55-6.81-.49.07-.96-.42-1.5-1.15-2.1.76.63-12.58-3.97-13.43-3.59l-2.21-.79c-3.03-1.17-6.2-2.26-9.7-1.39-.88-.38-.23-1.2-.8-1.61.9-.54,1.43-2.58.39-3.11-.3-.15-1.11-.02-1.43-.08.28-1.2-1.2-1.54-1.58-2.64.28-.5.92-.31,1.25-.28.23.02.58-.21.35-.58l77.65-.25Z"/>
            <g>
              <path class="cls-50" d="M82.71,188.15c.26.3.5.65.93.74,1.12.23.9-1.06,1.97-2.09.52.85,1.6.72,2.74,1.1-1,1.49-2.23,1.7-3.32,2.46l1.84,1.11c-.92.81-.87,1.15-.31,1.89,1.35,1.79,7.5-1.95,8.56,1.15.56-1.32,2.41-1.54,3.25-.93.32.23-.11.97.21,1.5s1.1.3,1.73.71c2,1.31-1.79,2.43-.92,3.83-7.22-.56-1.43-2.86-6.89-.8-.05-.58-.74-1.6-1.28-1.2-.45.34.39,1.59.78,1.76-.21.53-.62,1.04-.98,1.44-.62.7-.06,1.11-.44,2.18-.34.95,1.62,1.17,2.46,1.18-.08.23.13.57-.24.89-.53.47-3.73.17-4.92-1.3-.37-.46-.4-1.26-.06-1.37.27-.08.74.18.76-.61-.8,0-1.54.06-1.8-.28-.18-.23-.19-1.05-.72-1.13-.8-.12-.57,1.16-.49,1.86-.65-.21-.69-1-1.12-1.05-.67-.08-1.23.62-1.85.49l-.87-.17c-.12-.02-.4.66-.59.63-2.67-.35-5.04-1.25-7.77-1.93-.87-.22.18-1-.12-1.98-2.12,1.86-4.44.9-4.52.72-.13-.32-.47-1.12.14-1.12.8,0,.75-.39.67-.74-.09-.37-.64-.11-.81-.33-.85-1.08.44-2.66.19-3.54-.36-1.26-1.09-1.49-.43-2.55.52-.84.9-1.01,1.92-1.47.37-.17-.1-1.68,1.07-.95.96.61,1.69-1.15,2.29-1.68l-.32,2.18c-.05.33,1.02,1.2,1.27.74.3-.55.35-1.06.85-1.12.31-.04.76.34,1.08.26,2.75-.69.48,1.22,2.34,1.49.26.04.26-.65.83.22-.89.26-2.59.9-2.57,2.01.01,1.02.24.98.92.76.44-.14.5.94.73.96,1.29.12,1.16-5.07,1.62-4.84.13.07.4.47.9.31.58-.19,1.14-1,1.31-1.44Z"/>
              <path class="cls-295" d="M52.5,191.97c-.39.09-.58-.5-.79-.43-.2.06-.26.62-.71.6-.48-.02-.71-.61-.93-.75-.16-.1-.37.2-.84.13-.37-.74-.74-.22-.96-.21-.27.01-.22-.56-.22-.75,0-1.14-1.14-3.14-1.82-4.22.55-.76,1.67-1.02,2.3-1.01.86.01,1.01,1.07,2.08,1.43,1.27.43.36,2.7,1.27,3.69.3.32,1.32.45,1.32.8,0,.27-.41.64-.7.72Z"/>
              <path class="cls-99" d="M146.65,216.58c1.33.59-6.73,1.4-5.55,1.36-.83.02-1.54-1.91-1.35-2.38.44-1.14,4.62-1,6.68-.8-.08,1.18-.82.58-.98.74-.26.26.03.65.11.42.23-.65,1.12-.23,1.11.67Z"/>
              <path class="cls-201" d="M109.67,207.77c-.97.07-1.52-.61-2.46-.72-.31.58-.36.71-.49.85-.37.44-.9.36-1.04-.03-.16-.43-.01-.9.38-1.3l.72-.75c.17-.18-.2-.43-.64-.91,1.49-.36,2.18-1.67,2.99-3.34,1.14-.97-.16-1.31.71-1.27,2.38.12-3.16,2.84-.81,5.12.34.3,1.32-.63,2.08-.41,1.01.3,1.4.56,1.13,1.28-.14.37-.96,1.36-1.27.21-.2-.75-1.27.53-1.3,1.27Z"/>
              <path class="cls-16" d="M88.46,181.23c-.26.49-1.31.8-1.34,1.52-1.17-.22-1.54,1.69-1.49,2.55-.27.11-.42.36-.71.39-.37.03-.43-.31-.72-.44.19-.35-.03-.41-.52-.79.56-.38.9-.87.77-1.29-.61-2.05-.87.51-3.05-2.75,2.18-.51,4.7,3.01,5.22,1.48.3-.89-1.23-1.04-.73-1.63.33-.39.47-.46.64-.49-2.84.4,4.58.16,3.07.7.49-.19.62-.57.72-.42,1.23,1.78-3.21-.48-1.87,1.17Z"/>
              <path class="cls-113" d="M151,219.32c-.14.9-.5,1.82-1.43,2.02-.59-.21-.3-.52-.43-.75-.2-.37-.61-.32-.37.49-.56.87-3.6-.23-4.08-1.28-.16-.35.08-.76.53-1.22-.36.36,4.73-1.32,3.65.29.27-.31.75-.82,1.38-.42.29.19.72.34.74.88Z"/>
              <path class="cls-103" d="M99.41,199.64c.36.59.16,1.02-.22,1.42-.95,1.01-6.37-1.67-7.19-1.64-.39-.18-1.23-1.43-.78-1.76.55-.41,1.24.62,1.28,1.2,5.46-2.06-.33.23,6.89.8Z"/>
              <path class="cls-189" d="M138.37,217.7c.98.06.5.81.28,1.14-.37.57-1.15-.05-1.62-.01-.9.07-1.21-.04-1.07-1.06.04-.31.59-.26.77-.37.35-.22.4-.9.21-1.22-.44-.71-1.09.35-2.68-.66-.33-.21-.31-1.33.32-1.35,1.54-.03,2.83.5,4.78.03-.35,1.18-1.08,1.73-1.19,2.93-1.05.28-.78,1.05.21.56Z"/>
              <path class="cls-279" d="M130.34,216.63c-.74.53-2.59-.22-2.75-.8,0-.98,1.43-1.41,2.02-1.74.04-.61-1.11-1.87-.28-2.13.54-.17,1.02.6,1.23.87.36.46.01,1.04-.72,1.68.57.63.79.33,1.01.48.43.29-.25,1.45-.51,1.63Z"/>
              <path class="cls-27" d="M117.98,185.21c.25.89-2.42,2.31-2.7,1.33-.21-.73.2-1.95-.19-3.03.44-1.04,2.4-.04,2.89,1.7Z"/>
              <path class="cls-43" d="M13.95,180.58c-.92-.11-1.64-.46-2.07-1.41-.25-.56.23-1.8,1.03-1.78.32.06,1.13-.07,1.43.08,1.04.54.51,2.57-.39,3.11Z"/>
              <path class="cls-33" d="M93.87,173.65c.1.61-.14,1.15-.34,1.67-.27.69-1.04,1.31-1.99.79-.77-.42-.58-1.81-.95-2.46h3.29Z"/>
              <path class="cls-244" d="M93.04,204.22c-.84,0-2.8-.23-2.46-1.18.38-1.07-.18-1.48.44-2.18.37.11.69-.23.97.15.15.21.3.51.44.83.27.61,1.07.39,1.01,1.15-.04.53-.24.77-.4,1.23Z"/>
              <path class="cls-226" d="M85.63,185.29c.02.4.37,1.15-.01,1.52-1.07,1.03-.86,2.31-1.97,2.09-.43-.09-.67-.44-.93-.74.42-1.02.98-1.93,1.49-2.9.29.12.35.47.72.44.29-.03.44-.28.71-.39Z"/>
              <path class="cls-225" d="M61.58,182.37c2.16-1.76,2.32.84,4.72-1.28.35-.31.84-.35,1.35.6-1.61,1.23-4.05,1.76-6.07.67Z"/>
              <path class="cls-118" d="M168.73,210.51c.32.3.75,1.13.53,1.49s-.73.76-1.03.96c-.39-.47-1.54-.9-.56-2.09.16-.2-.57-.56-.44-.86.24-.58,2.39,1.33,1.5.5Z"/>
              <path class="cls-38" d="M122.41,210.11c-.54.06-1.85-.88-1.89-1.52-.06-1.13,1.23-.76,2.01-.36.73.37.62,1.8-.12,1.88Z"/>
              <path class="cls-207" d="M162.13,182.39c-1.46.1-2.83-1.32-2.96-3.02.82,1.1,2.09,1.27,2.96,3.02Z"/>
              <path class="cls-194" d="M169.19,195.45c-.69.12-1.17-.77-.98-1.18.15-.34.28-1.11.75-1.5.35.01,1.03.63.91,1.01-.16.5-.13,1.58-.68,1.67Z"/>
              <path class="cls-263" d="M174.5,213.43c-1.32-.35-1.32-1.68-1.43-2.85.99.67,2.04,1.67,1.43,2.85Z"/>
              <path class="cls-2" d="M146.66,185.78c.22.2-.59,1.05-.82.82-.23-1.24-1.7-1.36-2.12-2.54.95.47,1.68,1.38,2.94,1.72Z"/>
              <path class="cls-72" d="M53.94,181.64c.5-.14.66.24.67.44.02.29-.09.74-.3.78-.33.08-.6.08-.73-.1-.18-.25-.24-.96.35-1.13Z"/>
              <path class="cls-57" d="M166.88,184.3c.21-.14.72.46.8.65s-.43.44-.63.82c-.1.2-.48.24-.57-.12-.11-.43-.13-.99.4-1.35Z"/>
              <path class="cls-267" d="M73.96,184.04c-.65.3-1.33.3-1.48-.08-.13-.33-.05-1.29.22-1.14.61.41.91.83,1.25,1.22Z"/>
              <path class="cls-176" d="M179.11,198.43c-.34-.83-.13-1.28-.16-2.31.53-.44.5.51.73.84.25.37-.36,1.12-.57,1.47Z"/>
              <path class="cls-46" d="M97.97,181.37c.29-.33.76-.08.86.13.07.17,0,.42,0,.96,0,.25-.25.35-.51.04-.28-.34-.78-.64-.35-1.13Z"/>
              <path class="cls-138" d="M87.12,182.74c.04-.72,1.09-1.02,1.34-1.52.35.52.06.91-.35,1.29-.29.26-.58.3-.99.23Z"/>
              <path class="cls-184" d="M174.14,194.52c.3-.18.49.27.63.36.39.25.1.63-.11.84-.43.39-.62.06-.88-.17-.35-.32-.25-.67.36-1.03Z"/>
              <path class="cls-109" d="M139.38,175.34c-.32-.03-.94.26-1.19.47-.21.18-.76-.48-.72-.74.22-.47,1.92-.31,1.92.27Z"/>
              <path class="cls-96" d="M148.26,187.91c.22-.5.53.17.66.22.26.1.34.9,0,.91-.22,0-.92-.51-.66-1.13Z"/>
              <path class="cls-228" d="M181.49,185.91c.16-.45.51.17.64.26.44.29-.05.5-.28.75-.41.46-.7-.08-.36-1.01Z"/>
            </g>
          </g>
          <g>
            <path class="cls-49" d="M186.26,172.91c-3.09.04-6.23-.08-9.46.31-4.83.58-9.7.09-14.48.2-6.78-.82-13.69.1-20.48.07l-12.21-.06-35.76.21h-3.29s-77.65.25-77.65.25c-.47,0-9.55-.62-9.36.38-.24-.25-.6-.35-.94-.33.56-1.01.28-2.36,1.41-3.76l116.88-.35,59.44-.13c4.83-.01,3.31.41,5.91,3.2Z"/>
            <path class="cls-17" d="M110.59,171.37c-1.09,0,11.48-1.02,8.1.58l-46.6.03c-.3,0-.08-.9.11-1,.5-.28.72.54,1.15.53l8.13-.14h29.1Z"/>
            <path class="cls-241" d="M20.67,171.89c-.25-.11-.55.61-.7.61s-.45-.74-.72-.64c-1.98.76-3.72.67-5.72.44-2.43-.27-6.59,1.18-6.33-.14-.64-.22-1.48.94-2.09-.37,1.75-.8,3.22.17,4.84-.03,5.45-.66,10.79-.01,16.17-.17.8.88-.08,1.41-.79.33-1.4.85-2.94.74-4.66-.03Z"/>
            <path class="cls-107" d="M53.41,171.5c.74.85.2,1.38-.54.73l-16.09-.49,16.63-.24Z"/>
            <path class="cls-231" d="M33.06,171.47c.52.27.3.54-.27.59-1.14-.08-.99-.67.27-.59Z"/>
          </g>
          <g>
            <path class="cls-50" d="M171.55,215.62c-.03.72,1.49,1.21.24,1.98,1.2.13,5.57,7.48,6.59,3.63.17-.63-.97-1.33-.46-1.9.27-.59.93-.08,1.72-.35.45-.15.19-.68.29-.84.12-.21.48-.41.69-.39-.13.83-.03,2.35-.6,3.6,1.19.28,1.02-1.07,1.97-1.3.65,1.69-3.35,2.29-2.93,4.06.3,1.26-1.51,2.21-1.53,3.65-.01.76,1.37,1.62,1.96,1.09.89-.8.96-1.84,2.16-2.68.66,1.36-.37,2.42-1.68,3.11,1.29,3.91-2.17,2.03-2.19,4.9-3.43,2.26-.54,4.62-4.31,5.76-1.61,0-2.35-2.57-3.53-3.13-5.94-2.83-4.83-3.07-9.02-5.71l-6-3.77c.17-.97.01-1.3-.74-.62-.75-.07-1.25-.43-1.24-.74,0-.34.46-.51.66-.69.03-.47-.37-.59-.65-.52-.32.08-.63.84-.92,1.05-1.2-.36-1.95-.79-2.82-.98-.02-.14-.06-.31-.63-.72.87-.67.67-2,1-2.75.93-.2,1.28-1.11,1.43-2.02.12-.77,1.43-.87,1.97-1.52.26-.31-.39-.85-.44-1.12-.07-.33.48-1.1.72-.73,1.26,1.95-.37,3.22-1.43,4.36-.47.51-.36,1.92.36,2.1.35.09.66.26,1.11-.23.33-.36.73-.67.51-1.22.55.63,2.78-1.27,2.79-1.3.35-.61-.7-1.01-.55-1.43.17-.49,1.02-.36.88-.79,2.5.14-.81-.93,2.39-1.02.38,1.2,2.03.81,2.66,1.76-.43,1.28.43,1.6.36.12,1.62-.11,2.05-1.53,2.02-2.7,1.45.93,2.58,2.32,4.73,2.38.38-1.1-.22-2.04.73-3.05.45.48,1.14,1.17,1.72.72Z"/>
            <path class="cls-63" d="M177.77,234.17l-1.82,7.92c-.32,1.4,2.5,1.78,3.13,2.1,0,1.57,1.94,1.67,2.63,2.76l1.13,1.78c-2.12-.64-3.44-1.99-5.02-3.28l-11.91-9.68c-4.74-3.85-9.65-6.99-15.2-9.62-.68-.32-1.4-.67-1.51-1.35.87.19,1.62.62,2.82.98.29-.21.59-.96.92-1.05.28-.07.68.06.65.52-.2.18-.65.35-.66.69,0,.32.5.68,1.24.74.75-.67.91-.35.74.62l6,3.77c4.19,2.64,3.08,2.88,9.02,5.71,1.17.56,1.91,3.12,3.53,3.13,3.77-1.14.88-3.5,4.31-5.76Z"/>
            <path class="cls-136" d="M164.37,215.58c.03,1.18-.41,2.59-2.02,2.7.07,1.48-.79,1.16-.36-.12-.63-.94-2.28-.56-2.66-1.76.37-.52,1.13-1.63,1.97-1.75,1.2-.17,2.33.44,3.07.92Z"/>
            <path class="cls-121" d="M156.93,217.43c.13.44-.71.3-.88.79-.15.42.9.82.55,1.43-.02.03-2.24,1.92-2.79,1.3-.39-.98,1.04-1.51,1.14-2.48.07-.66-.47-1.18-.08-1.69.28-.36.87-.18,1.35-.25.56-.08.87.29.71.9Z"/>
            <path class="cls-137" d="M171.41,228.68c-1.22-.7,1.34.74.69,1.69-.43.64-1.29-1.13-1.43-.99.17-.18.53-.82.74-.7Z"/>
          </g>
        </g>
        <g>
          <path class="cls-229" d="M300.54,342.4c-3.52.25-5.71-.72-5.37.04-.97-.05-1.96.09-2.93-.05-3.14-.47-6.33-.17-9.84-.42-.55-.04-.56,1.26-.25,1.26l9.11.09c1.8.02,3.77.48,5.37-.39,1.08-.08,2.8-.01,3.91.06l7.91.55c-1.36.92-2.92.18-4.54.2l-21.95.21c-.12,1.78-.4,3.97-2.46,3.98l-73.78.08c-.9,1.85-1.4,3.67-2.89,4.93-1.52-1.33-1.73-3.13-2.76-4.85l-78.21-.09c-1.45,0-2.75-.33-3.56-1.2-.76-.82-.72-2.16-1.26-3.5l-5.52.61c.02-.2-.1-.66.09-.93,1.95-.15,3.8.08,5.74-.41l.16-16.24c.01-1.4.53-2.33,1.89-3.01,12.22-6.13,22.52-14.95,29.66-26.77,6.66-11.02,10.06-23.34,10.14-36.1.14-21.92-23.83-30.6-41.26-35.39L5.19,194.11c-1.49-.41-2.4-1.14-2.74-2.55-1.59-6.67-4.66-17.21.1-22.55.54.23,1.21-.29,1.74.36l-1.9,2.03c.9.47-.77,1.92-.79,2.8-.02.69.33.88,1.02.74-.11-.2-.45,3.45-.04,5.44,1.81.1,2.83,1.19,4.33,1.62l59.69,17,12.36,3.67,34.54,9.99,24.89,7.9c3.88,1.23,7.11,3.45,10.8,4.25.11.68.83,1.03,1.51,1.35,5.54,2.63,10.46,5.77,15.2,9.62l11.91,9.68c1.58,1.29,2.9,2.64,5.02,3.28l-1.13-1.78c-.7-1.1-2.63-1.19-2.63-2.76-.63-.32-3.45-.7-3.13-2.1l1.82-7.92c.02-2.88,3.49-.99,2.19-4.9,1.31-.68,2.34-1.75,1.68-3.11-1.2.84-1.28,1.88-2.16,2.68-.59.54-1.97-.33-1.96-1.09.03-1.44,1.83-2.39,1.53-3.65-.42-1.76,3.58-2.37,2.93-4.06-.95.23-.78,1.59-1.97,1.3.57-1.26.47-2.77.6-3.6.72-2.54,2.8-10.99,2.51-13.7-.15-1.37.72-2.66.88-4.22.88-8.78,1.83-17.24,1.95-26.01-8.05.1-16,.53-23.62-.4,4.78-.11,9.65.38,14.48-.2,3.23-.39,6.36-.27,9.46-.31.57,0,.89.06,1.25-.41.24-.31.1-.7.47-1.01.43.47.3.82.48.93,1.98,1.26.82-6.95.82-4.8l.08-62.61c-6.38-.92-12.5,0-18.18,2.48-4.54,1.98-6.68,6.64-8.84,3.88-1.74-2.23-4.05-4.73-4.22-7.76-.19-3.41,1.99-6.81,4.22-9.18,2.37-2.53,3.42,4.59,10.79,2.43,6.85-2.01,13.39-3.79,20.49-4.85-.29-2.74.11-4.87.06-7.03.24-.02.31-.24.41-.34.37-.39.62.45,1.05.53,2.49.43,4.36-.44,6.2-.97.45.49-.17.57-.41,1.46,1.19.33,2.22.08,3.14-.29.22.65,6.38.3,6.65-1.09.08-.39-.43-.7-.54-1.17.57-2.46.68-4.99.59-7.95-3.68.3-7.12.27-10.36,1.12-4.45-.8,7.64-1.93,7.81-1.95.76-.09,1.52-.75,2.69-.69-.43-1.26-1.21-.07-1.73-.48.08-.19.22-.59.05-.78,2.21.11,1.13-4.47,1.17-5.89.01-.48.12-1,.03-1.66-2.75-.63-5.14-.17-7.58.21-1.14.18-2.49.23-3.68-.14.78-.96,1.74-1.8,2.09-1.45,1.12,1.29,2.83.27,4.04.62,2.64-1.61,5.29.91,5.37-.98.01-.3-.03-.57-.4-.57.42-2.29.08-4.63-.13-7.25-2.75-.26-5.32-.3-7.71.38-.06-.78-1.25-.34-1.61-1.64l3.99-.1c1.79-.04,5.32.13,5.37-.59.03-.43-.56-.53-.44-.98.28-2.15.43-4.93-.22-7.13-1.79-.54-4.57-.45-6.16.28-.28-.99-2.35-.57-2.22.23.12.75-.15,1.31-.48,1.75-.42.58-1.53.88-1.71-.02.47.05.72-.03,1-.23.64-.44.38-.98.49-1.75.28-1.99,4.21-.11,3.88-1.44,1.35-.24,5.39.68,5.37-.98,0-.23,0-.58-.35-.49.01-3.41-.32-6.83-.71-10.56-1.87-.12-3.3,0-4.73.19.32-.54-.33-.35-.56-.41.4-.15,1.04-.48,1.45-.77.55.21.99-.43,1.48-.1.36.24.78.13,1.22.04.98-.2.47-2.3.33-3.43.15-.19.23-.37.03-.55,1.31-.8,2.06-2.31,4.01-2.66.11-.88.18-1.11-.05-1.17-.28-.08-.5-.15-.66-.11.62-1.07,1.64-1.76,2.45-2.97,1.55-2.31,1.9-4.7,1.69-7.38-.12-1.5-.77-2.34-1.22-3.74-.54-1.65-1.53-2.26-2.55-3.55-2.51-3.14-6.35-3.77-10.19-3.35-5.98.66-10.76,6.43-10.45,12.49.21,4.16,2.7,7.61,6,9.52-.02.69-.29,1.41-.36,1.95-5.97-2.49-9.08-9.63-7.01-16.15,2.39-7.53,10.25-11.48,17.71-9.23,5.59,1.68,9.18,6.33,9.85,11.54.75,5.87-2.19,11.37-7.65,14.14,1.7,12.79,2.77,25.53,2.8,38.71l.06,27.1c7.31.88,13.92,2.93,20.81,4.93s7.85-4.94,10.32-2.7,4.63,5.85,4.37,9.2c-.24,3.06-2.44,5.54-4.06,7.66-2.45,3.21-5.67-3.09-9.62-4.06-5.54-2.17-11.27-3.15-17.38-2.15l-.27,62.46,86.11-.15c1.74,0,3.03,1.47,3.03,3.22v26.35c-.02,1.24-.36,2.95-1.71,3.57-15.79,7.3-37.68,18.56-51.27,29.13-14.37,11.17-15.66,28.79-11.47,45.5,5.51,21.97,19.93,40.34,39.78,51.1,1.36-3.09,2.44-6.04,4.26-8.84l26.05-8.07c4.21,1.93,7.28,5.33,10.35,8.84,1.16,0,2.63-1.15,3.85-.54,4.74,2.38,9.03,4.79,13.51,7.51.98.59,2.88,2.2,2.58,3.63-.95,4.62-2.33,8.84-3.92,13.27-.99,2.28-19.81,1.58-21.86,1.32-5.28-.67-10.24-1.25-15.22-.9Z"/>
          <g>
            <g>
              <path class="cls-76" d="M300.54,342.4v.6c-1.11-.08-2.83-.15-3.91-.06-.61.22-.92-.33-1.47-.49-.33-.77,1.85.2,5.37-.04Z"/>
              <path class="cls-178" d="M325.07,319.56c2.6,5,4.05,3.17,6.33,8,1.66-.4,2.3,1.25,3.91,1.15.42-.02.4-.27-.07-.78.71.18,1.88-.29,2.64.15.21.12.09.82.49.94.24.07.71-.08.87-.31.15-.22-.16-.56-.11-.92.28.35.93,1.36.33,1.64-.36.16-.77.59-1.33.88-5.02,1.81-8.71,4.76-11.95,8.5-1.06,1.22-2.5,1.88-3.38,3.64-.36-2.28-.28-3.97-.35-5.81l-.48-12.22c-.99-.67-1.2-2.03-2.29-2.4-.34-.09-1.06.12-1.32,0-.18-.09-.51-.06-.24-.51,2.17-1.17,4.54-2.69,6.95-1.95Z"/>
              <path class="cls-206" d="M318.12,321.51c-.26.45.07.41.24.51.26.13.98-.08,1.32,0,1.09.37,1.3,1.73,2.29,2.4l.48,12.22c-1.87.73.06-4.2-2.06-7.43-.6.48-.31.99-.78,1.19-1,.42.18-.25-1.25-1.17.69-1.16-.1-2.85-1.59-3.63-.23-.12-.76.18-1.01-.08-.13-.14-.05-.5-.07-.68.02-.24-.06-.48.05-.98.49.04.83.06.93-.25.08-.27-.02-.6-.1-.85.07-.79.89-.92,1.55-1.28Z"/>
              <path class="cls-287" d="M339.13,327.8c-.05.36.25.7.11.92-.16.23-.63.38-.87.31-.4-.12-.27-.81-.49-.94-.76-.44-1.93.03-2.64-.15.47.51.49.76.07.78-1.61.1-2.25-1.55-3.91-1.15-2.29-4.83-3.74-3-6.33-8,4.69,1.44,4.91,6.29,12.23,7.13-1.89-1.44-4.04-1.49-6.5-3.89,2.53.51,6.89,3.18,8.33,5Z"/>
              <path class="cls-82" d="M338.62,332.31l-2.08,9.66c-1.51-1.55.53-4.94-1.55-3.18.39.47-.12.95-.47,1.04-.18.05-.27-.5-.7-.41-.26.05-.48.42-.79.37-1.94-.28,2.34-3.41,2.99-3.85,1.41-.97,1.17-2.99,2.6-3.62Z"/>
              <path class="cls-76" d="M292.24,342.39c.15.79-.95.27-.98.93l-9.11-.09c-.31,0-.31-1.3.25-1.26,3.51.26,6.7-.04,9.84.42Z"/>
              <path class="cls-123" d="M314.71,324.86c-.26,1.71-1.78,3.32-3.58,3.71,1.33-1.62,2.28-2.87,3.58-3.71Z"/>
              <path class="cls-290" d="M335.11,335.14c-.63.84-1.21.65-.44-.23.16-.41-.56-1.02-.37-1.4.14-.27.68-.67.96-.42.48.43.28,1.2-.15,2.05Z"/>
              <path class="cls-75" d="M299.14,315.21c-1.16.65-2.21,1.53-3.8,1.02,1.14-.97,2.47-1.01,3.8-1.02Z"/>
              <path class="cls-123" d="M316.56,322.79c.08.24.18.58.1.85-.1.31-.43.28-.93.25-.11.5-.03.73-.05.98h-.98c.16-1.07.8-1.85,1.86-2.07Z"/>
              <path class="cls-255" d="M331.36,340.09c.33-.22.54.31.7.4.48.28-.07.48-.26.74-.28.39-.31.11-.49-.02-.46-.33-.7-.61.06-1.12Z"/>
              <path class="cls-172" d="M291.95,317.21c-.02-.34.64-.12.99-.17.16-.02.29.35.08.46-.17.09-.37.48-.54.5s-.51-.31-.54-.79Z"/>
              <path class="cls-87" d="M338.62,332.31c.06-.69-.11-1.03.15-1.63.56.15.36.77.36,1.23,0,.19-.26.3-.51.4Z"/>
              <g>
                <path class="cls-294" d="M296.1,323.46c.26-1.01,3.63-1.58,3.51-2.76-.04-.38-.37-.52-.77-.7s-.66.29-1.15.3c-.43,0-.66-.31-.82-.34-1.55-.24,2.4-.99,2.45-.98.32.1.63,1.28,1.07,1.04,1.45-.78,1.82-2.23,3.07-3.22-1.01-.76-2.16-.44-3.39.25.17-.81.93-.86.6-1.29-.38-.48-.68-.62-1.15-.96,1.68-.92,3.21-1.13,4.98-1.71.65-.21,1.07.86,1.46.27,1.97-2.95,1.27,2.79,2.15-.99.27-1.14,3.25-1.03,4.24-.39,2.75,1.78,4.88,3.97,6.88,6.39-9.64,4.82-5.89,3.01-10.88,8.44-.43.47.11,1.93-1.21,1.61,1.43.36-7.72-4.08-7.3-4.61,2.94-1.4,6.02-1.07,8.39-3.58-3.16-.1-9.02,4.6-12.13,3.23Z"/>
                <path class="cls-289" d="M311.2,316.91c.68-.45.96-.15.98.33,0,.21-.19.42-.61.42-.37,0-1.1-.27-.36-.75Z"/>
              </g>
              <g>
                <path class="cls-35" d="M296.1,323.46c.35,1.05,13.25,6.25,12.47,8.28.1-.27-7.48,3.41-8.41,2.77-4.64-1.36-8.61-4.09-12.9-6.57.91-.91,1.32-1.94,2.3-2.36l3.87-1.64c.33-.14.38,1.23,1.02.71.23-.18.51-.52.65-1.03.16-1.01.38-.48,1-.15Z"/>
                <path class="cls-181" d="M305.05,330.83c.32-.32.73-.12.87.13.33.59-.85,1.14-.74,1.18-.38-.14-.38-1.06-.14-1.31Z"/>
              </g>
            </g>
            <g>
              <g>
                <path class="cls-132" d="M275.29,330.11c.5.26.77.82,1.2,1.14-.75.52-2,1.36-1.13,2.53-.28-.01-1.03-.14-1.29.33-.19.62.96.62,1.5.66s1.33-.8,1.17-1.39c-.2-.7-.09-1.02.26-1.58.7.21,1.14.92.81,1.86-.57,1.66-.34,3.21-.6,4.98-.18,1.22,1.22,2.83.22,4.19-.24.06-.39-.11-.56-.17-.4-.14-.23-.74-.32-1.2s-2.84-.11-2.47-.36c.52-.36-.84,2.9-.81,3.05.19.89.85.72,1.84.74.81.02,1.13-.02,1.14-1.05.24.04.51.56.67.54.22-.03.23-.61.65-.49.12.3.19.71.01.99-.45.31-1.06.28-1.66.96-2.39-.84-4.86-.44-7.69-.54l2.02-.93c-.06.17.04.48.28.48s.57-.09.71-.29c0,.52.71.37.8.07.15-.5.86-.87.6-1.06-.53-.4-1.49-.14-2.01-.21-.64-.08-.08-1.3.55-1.43.6.31.69.55.87.46.38-.19.45-.18.62-.34.44-.4-.38-1.11-.46-1.42-.24-.94,1.53-.94,1.98-1.36s-1.42-2.2-.24-2.32c.85-.09.87-.73.44-1.01-.25-.16-.78-1.34-1.05-.62-.41,1.14-.53.34-.64.13-.75-1.39-.7,2.14-1.42,1.55-.3-.58.51-.84-.25-1.22-.35-.17-1.24.18-1.3-.14-.16-.84.77-1.02.68-1.28s-.05-.75-.38-1.24c-.15-.22-.66.37-.91.54-.43.3,0,.85,0,1.2-.01.42-.74.88-.95.57-.31-.43-.34-.86-.46-1.3-.95.29-2.74,0-2.64-1.27.04-.48,1.41-.49,1.67-.75.32-.31.81.78,1.23,1.12.78.4,2.44-1.08,2.14-2.06-.87.09-.97.58-1.1.42-1.89-2.36,5.1-1.7,6.3-1.56Z"/>
                <path class="cls-186" d="M277.58,344.9c.18-.28.1-.68-.01-.99-.15-.38-.41-.69-.13-1.06,1-1.36-.39-2.97-.22-4.19.26-1.77.03-3.32.6-4.98.33-.94-.11-1.65-.81-1.86.1-.48-.31-.46-.51-.56-.44-.32-.7-.88-1.2-1.14,1.17.13,2.32-.31,4.16-.56v14.36c0,.7-.21,1.13-.63,1.32-.51.24-.84-.01-1.24-.33Z"/>
                <path class="cls-146" d="M224.07,263.32c.2-.62-.83-1.42-1.01-2.19-.25-1.02,1.81-.41,2.35-.85.73-.6.69-2.35,2.14-3.02-1.2-.42-2.11-.3-2.14-1.17.24-.2,1.05-.06,1.29-.07.21,0-.04-.42.8-.71.32.8,0,1.57.47,2.16l1.11-1.12c.2-.21.82.69,1.06.53,2.85-1.36,2.5-2.59,3.56-2.05.46.24.78,1.07-.03,1.25-.66.15-.81.52-1.27.89-.59.47.7.36.63.87-2.78,3.32-3.56-1.3-5.53,1.97-1.1.31-.71.59.43.76-.66,1.44-2.13,1.43-3.49,2.21-.43.24.3.72.23.82-.25.32-.33.35-.51.31-.25-.05-1.37-.24-.07-.59Z"/>
                <path class="cls-36" d="M216.38,341.25c-.61,1.17-2.29,1.24-3.17,2.17.04-.62.37-.68.36-1.3,0-.32.24-.85-.61-.74-1.33.18-.95-1.58-2.11-2.5,1.5-.85,2.38-3.36,3.55-2.56,1.36.93.23.32-1.32,2.52,1.45.59,2.35.79,4.31.83l-1.01,1.57Z"/>
                <path class="cls-203" d="M224.06,272.79c.76,1.5,4.69,2.19,1.51,1.81-.19-.02-.16.17-.73-.18-.85.44-1.25,1.3-2.28,1.13-.59-.1-1.23-.68-2.05-.93-.2-.03-.57.43-.77.45-1.04.08.04-2.12-1.57-1.32l1.78-3.26c.56.67-.02,1.91.99,2.18,1,.01-.07-.68.06-.86.16-.22.98-.18,1.15-.05.21.15-.05.66-.14.95-.11.35.47.81.77.88.33.07.8-.34,1.28-.8Z"/>
                <path class="cls-298" d="M217.55,299.38c-.05-.47.1-.91.51-1.26,1.53-1.29.88-3.45,1.83-5.67-1.12-.52-1.06-.93.12-.76-.19.98-.1,1.67.5,1.83.4.11.78-.46,1.39-.49.81,1.19-.48,2.38-1.43,2.76.52.95-.64.76-.52,1.02.26.57.68.82.91,1.04.5.48-.38.94-.81,1.34-.1,1.17-1.2,1.06-1.07-.16-.63.07-1.08.23-1.44.35Z"/>
                <path class="cls-146" d="M220.46,263.17c-.36-.35-1.23.59-1.55.97-.52.62.48,1.66.2,2.09-.45.68-1.49.14-1.67-.27-.55-1.19.48-3.96.04-3.26-.05.07,3.21-1.46,2.32-1.32.46-.07,1.18.14,1.6.45.18.13.5-.18.74-.45.14-.16.34.53.49.71.13.16-.29.37-.41.79-.11.42-.28.71-.54.93-.36.3-.49.08-1.22-.64Z"/>
                <path class="cls-74" d="M130.73,325.1c.33-.35.36-.04.55.13.26.23.53.29.37.6-.81.24-1.73-.03-2.19,1.15,1.34.15,5.19.76,5.39-.6.68.18,1.73.57,1.59,1.44-.2-.02-9.37.14-10.55.38-.3.46-.48.79-.68.34-.06-.15-.47-.34-.48-.5.03.41,7.25-3.86,6-2.94Z"/>
                <path class="cls-18" d="M256.28,338.28c1.11-.36.75-.7.52-.72-.81-.08-1.15.32-1.43.51-.63.02-1.32-1.03-1.6-1.61,1.76.18,3.02.32,3.85-1.1.58.68.82,1.52.93,2.22-.9.72-1.15,1.41-.96,2.44-.83-.68-.66-1.53-1.31-1.74Z"/>
                <path class="cls-37" d="M228.86,264.83c.26-.28.71-1.09.79-1.43.07-.29-.7-.32-.69-1.11,0-.39.91-.35.98-.71s-.61-.64-.65-1.18c-.04-.61.43-.6.48-.82.08-.34.53-.41.91-.18.29.18-.2.6.24.98.26-.1.54-.99.9-.55.13.15.41.16.44.48s-.13.53-.39.62c-.22.07-.84-.25-1.53.04.44.44,1.18.86.69,1.58-.22.33-.56.61-1.54,1.28-.46.32.23.72.21,1.04-.03.37-.94-.19-.83-.03Z"/>
                <path class="cls-275" d="M227.95,284.29c-.43-.38,1.11-.78.27-1.75-1.35.46-.72-.16-.52-.19,1.48-.16.5-1.12.36-1.28-.23-.26-.38-.7-.27-.9-.02.05,1.96-1.49,2.51-1.2.41.22.91,1.26.58,1.64-.95-.35-1.21-.02-1.69.46-.87.86-.23.91.49,1.97.33.5-.73,2.11-1.72,1.25Z"/>
                <path class="cls-131" d="M217.15,334.1c-.39-.16-.48.64-.6.76-.16.17-.5-.13-.79-.34-.33-.25.64-2.36.85-2.57.56-.54,1.21.16,2.48-.46.72-1.17-.67,2.74-.86,3.02-.1.15-.47-.15-1.07-.41Z"/>
                <path class="cls-192" d="M217.86,296.14c-.74-1-1.86-.83-1.85-1.88,1.34-.32,1.16-.56-.05-.96.2-.7-.06-.85-.25-.92-.25-.09-.13-.78.06-.71l.67.22c.26-.37-.2-1.83.55-1.7,1.88,1.68-1.18,2.23.78,2.94.54.2-.26.44-.38,1.12-.09.5,1.14.71.87.95-.57.52-.36,1.75-.42.94Z"/>
                <path class="cls-190" d="M121.64,344.3c-.41-.88-.71-1.01-.84-1.13.96.86.1-11.51.79-12.49.38,4.59.26,9.06.05,13.62Z"/>
                <path class="cls-232" d="M234.98,279.25c-.16-.76-.29-.94-.44-.93-.39,0-.65,0-.77.2-.4.68.92,1.65-.16,1.72-.33.02-.46.1-.53-.08.31.76-.56-4.59,1.23-3.27.46.08.87-.33,1.18-.13.68.44.69.97.37,1.76-.12.3.24.59-.06.87-.19.18-.41.64-.82-.14Z"/>
                <path class="cls-259" d="M260.06,335.74c-.07.34.32.45.44.59.11.13.08.42-.18.69-.7.72-.3-2.48-.64-2.95-.56-.78-1.3-.42-2.32-.7.58-.83,3.11-1.35,3.28-.37.1.76-.1,1.14.23,1.47.22.21-.71.82-.81,1.27Z"/>
                <path class="cls-120" d="M250.16,335.94c1.32-.81-.87,4.19-1.54,2.62-.09-.2-.02-.55.29-.83.77-.68-.2-1.31-.17-2.05.04-.88,1.21-1.27,1.67-1.99.78.67.47,1.64-.25,2.25Z"/>
                <path class="cls-79" d="M268.53,339.63c.6.56.2,1.32-.28,1.51-.35.14-.89.45-1.05-.04-.42-1.26,1.19-4.95.52-3.76.16-.29,1.13-.55,1.06.19-.07.71-.91,1.46-.24,2.09Z"/>
                <path class="cls-51" d="M233.98,283.21c-.25-.32,1.24-1.25.37-1.51-.64-.19-.92.31-1.09.27-.36-.07-.19-.57-.07-.78.2-.33.6.26,1.04.15,1.01-.27,1.3.36,1.27.83-.05.71-.99,1.71-1.52,1.05Z"/>
                <path class="cls-224" d="M247.65,337.7c-.39.89-1.09.66-1.11.31-.05-.68-.08-1.2.19-1.35.52-.28,1.29.2.92,1.04Z"/>
                <path class="cls-162" d="M267.96,330.53c-.13.9-.67.93-.91,1.02-.34.12-1.32-.49-1.15-.82.31-.57,1.23-.69,2.06-.2Z"/>
                <path class="cls-142" d="M218.06,298.11c-.41.35-.56.79-.51,1.26-.71.25-.95,0-.51-.64.18-.26-.44-.86-.09-.89.5-.05.81.16,1.1.27Z"/>
                <path class="cls-41" d="M219.32,255.01c-.62-.22-.17-.58.5-.45.25-.49.92-.57.95-.2.03.41-.17.72-.29.91-.28.46-.61-.25-1.17-.26Z"/>
                <path class="cls-198" d="M223.64,279.08c-.05-.22.79-.17.98-.11.31.1.24.7.23,1.2,0,.23-.5.36-.73.26-.27-.12-.35-.71-.48-1.34Z"/>
                <path class="cls-174" d="M127.86,322.05c-.77.26-.66,1.15-.9,1.3-.2.13-.66-.47-.72-.7s.65-.49.8-.88c.5-.62,1.39-.38.82.28Z"/>
                <path class="cls-230" d="M261.22,340.74c-.04.59-.68.93-.99.24-.17-.36-1.13-.79-.24-1.05.3.24,1.25.52,1.23.81Z"/>
                <path class="cls-101" d="M267.08,343.03c-.05-.2.71-.09.97-.1.32-.02.37.72.08.92-.15.11-.26.44-.56.49-.26.05-.32-.69-.49-1.31Z"/>
                <path class="cls-161" d="M216.17,284.4c.29-.19.5.24.64.34.33.25.09.66-.13.86-.4.34-.66.12-.92-.15-.32-.34-.18-.66.42-1.05Z"/>
                <path class="cls-93" d="M260.18,337.77c.16-.35.47.2.62.32.3.24.24.9-.08.95-.67.1-1-.28-.54-1.27Z"/>
                <path class="cls-210" d="M232.08,266.94c.39-.38.99-.21,1.03.02.03.21-.47.57-.69.73-.41.3-1-.1-.33-.76Z"/>
                <path class="cls-153" d="M191.36,335.6c-.39-.51-.29-1.11-.09-1.99.58.27.52.83.09,1.99Z"/>
                <path class="cls-64" d="M194.54,340.77c-.29.33-1.17.49-1.63-.28.41-.82.55-.13,1.63.28Z"/>
                <path class="cls-257" d="M172.15,245.63c-.75.08-1.04.24-1.35.66-.38-.6-.2-1,.08-1.03.48-.05,1.04-.23,1.27.36Z"/>
                <path class="cls-266" d="M271.27,337.05c.16.31.1.69-.19.95-.14.13-.58.13-.78-.17.18.27.42-1.24.97-.78Z"/>
                <path class="cls-37" d="M228.86,264.83c.33.24-.07.79-.35.9-.17.07-.37-.4-.53-.48-.29-.15-.11-.46.07-.48.29-.04.74-.08.81.07Z"/>
                <path class="cls-242" d="M216.27,288.42c-.02-.46.63-.2.76.04.09.16,0,.57-.2.71-.16.11-.54-.28-.56-.75Z"/>
                <path class="cls-235" d="M194.17,343.67c.19-.48.55.18.68.26.28.18.1.44-.06.48-.37.09-.91,0-.62-.74Z"/>
                <path class="cls-205" d="M271.24,344.58c-.13.2-.47.28-.71.29s-.34-.31-.28-.48c-.1-.26.08-.44.27-.49.56-.14.9.26.71.68Z"/>
                <path class="cls-219" d="M134.85,326.37c-.2,1.37-4.05.75-5.39.6.46-1.18,1.38-.91,2.19-1.15,1.01-.3,2.29.31,3.2.55Z"/>
                <g>
                  <path class="cls-252" d="M193.61,327.3c-1.47.34-3.02.38-4.18-.36-1.49.51-2.67.59-4.09.57l-26.44-.37c-.39,0-.99.41-1.22.49-.15.05.08.41-.13.55-.35.13-.53.1-.59.1-.07-.48.22-1.09-.19-1.34l-6.17.3c-.44.02-.81.04-1.19.06-.23.02-.36.41-.26.7-4.39-.16-8.59.18-12.7-.19.14-.87-.92-1.26-1.59-1.44-.92-.24-2.19-.84-3.2-.55.16-.32-.11-.37-.37-.6-.19-.17-.22-.48-.55-.13,6.02-4.44,11.99-8.83,16.38-15.41,1.91-2.86,4.36-5.5,5.85-8.29.05.18.15.44.34.54.24.12.46-.11.67-.49l3.11-5.78c.24.25.36.49.64.38.37-.14,1.25-1.59.66-2.42-.98-1.38,3.81-7.73.7-6.48,4.62-15.48,7.04-29.84-2.62-43.37-.29-.41.74-.63,1.19-.48.23.07.41.27-.17.73,4.07,6.07,6.37,13.13,6.61,20.67.93-.12,1.64-.67,2.11-.22.23.23.3,1.14.97,1.15,2.48,0,5.15,1.9,5.09,1.69.07.26.03.59-.19.95.51-.84-5.28,1.83-3.47,2.02.78,1,2.28.84,3.44.36.75-.31,1.54-.83,1.86-1.86-1.71-.22-.18-.93.38-.65,1.48.73,4.12,2.08,5.64,1.47,1.21.21,2.58,2.62,4.53,2.51,1.83.56-1.54-7.13.11-4.36.63,1.2,2.31,1.33,2.89,3.07-.71.32-1.29.06-1.51.43-.37.62-1.05,1.93,1.24,1.36-1.23.33-.94.94-1.36,2.13-.78-.61-3.7-1.37-4.1.13-.49,1.83,2.45,3.45,4.01,3.77-.1,1.15.81,2.18.56,2.73l-.55,1.22c-.07.15.39.25.38.66-1.14-.69-1.65-.08-2.34-.28-.02-1.1.9-1.58,1.54-2.38-.81-.13-1.68-.49-2.14.64-1.06-.96-3.24-1.19-4.06.65,1.02.35,1.46.11,1.97.21.77.15,1.57,1.47,1.34,2.24-.13.44-.66.61-.56.77.22.34.56.29.73.22.25-.1.17-.62.3-.93.71.3,1.48.82,2.25.85.16-.33.22-.88.46-1.15,1.76-2.03-.5,2.71.71,2.57-1.39.5-2.24.43-3.5.67-.4-.35-.1-.49-.07-.63.06-.23-.14-.52-.23-.4-.15.2-.6.43-.83.42-.62-.05-.78-.84-1.1-.7-.49.21-1.2.7-.95,1.06,1.19,1.69,2.12.89,1.77,1.78l-.35.89c.77.5,2.41.88,3.1-.06.32-.44.21-1.08.82-.92.24.07.77-.07.71.46,1.12-10.05-2.83,12.66-1.8,3.28.99-.25.91.44.96.92.02.22-.49.2-.8.08-1.91-.7.56-1.55-2.01-1.33-.01,1.58.71,3.18,1.83,4.55-.14,1.32,1.31,1.09.35-.39,1.75-1.41,2.38-2.94,3.4-4.15-.63-.42-1.45-.83-1.19-1.02.51-.38,1.37-3.94,1.35-4.88.71.45.41.86.39,1.21-.03.33.41.52.7.28l.7-.56c.04,1.17.4,1.87.28,3.15-1.19-.16-.96-1.04-.86-1.55-1.05.15-1.54.82-1.28,1.44.15.35.51.93.92,1.02.3.06,1.11-.83,1.29-.5.59,1.25.67,3.51-.2,4.5-.79.25-.51-1.28-.78-1.16-1.63.71-4.41.22-1.19,1.73-1.16.27-.96,1.04-1.1,2.16-.12.92.55,1.48,1.09,1.6.41.09.86-.27,1.25-.79.22-.29-.36-.55-.53-1.11l1.45-2.49,1.42,18.88c.47,6.29,2.25,13.12,2.25,13.21Z"/>
                  <g>
                    <path class="cls-5" d="M193.61,327.3c.05.78-.16,1.11-1,1.1l-35.06-.22c.21-.14-.02-.5.13-.55.22-.08.83-.49,1.22-.49l26.44.37c1.42.02,2.61-.06,4.09-.57,1.16.74,2.71.7,4.18.36Z"/>
                    <path class="cls-42" d="M158.37,293.63c-.92.27-.92,1.33-1.3,2.04l-3.11,5.78c-.21.38-.43.61-.67.49-.19-.1-.29-.36-.34-.54,2.48-4.64,4.3-9.49,6.12-14.26,3.11-1.24-1.69,5.1-.7,6.48Z"/>
                    <path class="cls-270" d="M156.96,328.28l-7.81-.28c-.11-.29.02-.68.26-.7.38-.02.75-.04,1.19-.06l6.17-.3c.41.24.13.86.19,1.34Z"/>
                    <path class="cls-48" d="M181.89,279c-.88.99-1.55,1.23-2.25,1.24-.86,0-1.2-1.12-1.8-1.45-5.3-3.02-8.26,3.01-10.14,1.37-.4-.35-1.44-.78-1.1-1.56.11-.25.96-.54,1.13-.82s.1-.94-.27-.92-.67.61-1,.49c-.45-.17-.71-.66-1.24-1.06-.49-.37.1-.56.33-.66.46-.2.92-.23,1.41.45.3-.61,1.11-1.18,1.17-2.02.03-.44-.93-1.06-.37-1.5.31-.25,1.34-.59,1.27-.2-.59,3.02,2.59-1.25,5.38-.41.21-.44.5-.96.84-1.04,1.58-.33-.4,2.35.59,2.14.86-.18,1.09-.18,1.41.07.67.51-.05.93-.1,1.58,1.56-.22.73-1.17.72-2.39,1.64.75,5.75-1.81,4.32.9-.35.02-.71-.21-1.06-.09s-.5.81.02,1.27c-.8.93-2.08,1.33-2.61,2.56.94.25,1.12-.66,1.44-.43.44.31.73.54.8.81.13.46-.28,1.37-.9,1.12-.37-.16-.83.05-.95.28-.08.15.39.33.47.51.48,1.01-.23-.98,2.46-.2Z"/>
                    <path class="cls-254" d="M154.89,314.82c-.88.36-1.26,1.51-2.11,2.25-1.47-1.77,1-.51-2.93-.77-.48-.03-.35-2.25.09-2.05.51.23.79.46.98.38.3-.13.41-.48.1-.89-.51-.67-.81-.97-1.17-1.03-.89-.17-1.39.45-1.36,1.46-.25.46-.35.45-.49.53-1.22.74-.17-2.17-.51-2.95,1.25.12,1.85-.97,1.97-1.64.06-.33-.1-1.09.29-1.38.22-.17.46-.36.89-.14-.08.8.41.79.71.66.33-.14.2-.46.27-1.14.03-.35.63-.07.9.02.42.13.43-.77,1.02-.78.45,0,.78.4.93.55-.32-.35,2.7-.3,3.45,2.75.14.58-.48.74-.7.73-.44-.02-.42-.74-.72-1.09s-.93.34-1.03.19l-.81-1.24c-.23,1.04.48,1.28.59,1.93.12.74-.73.69-1.23,1.3-.98,1.17,3.08-.23,4.17,1.37.82,1.2.74,1.76.1,3.12-.42.89-.88,2.19-2.12,1.98-.12-.26-.01-.88-.17-1.14s.46-.57.9-.85c.83-.55.27-1.24.02-1.66-.56-.91-1.47.96-2.03-.47Z"/>
                    <path class="cls-114" d="M154.46,321.69c.12.83.94,1.45.72,2.03-.14.37-.7,1.13-1.19,1.12-.97-.02-1.03-1.28-1.78-1.45-.15.68-.21,1.27-.68.72.44-.85-.41-1.21-.36-1.47.09-.47,1.59-.03,1.6-.47l.13-3.72c.02-.55.6-1.2.86-1.33.34-.17,1.11.35,1.39.93.16.35-.21.3-.5.79,1.45.07,1.09,1.33,1.67,1.49.39-1.39.99-.4.97-.09-.06.69-.34,1.14-.75,1.56.31.71.84.77.71,1.03-.24.5-.87.78-1.2.79-.49.02-2.2-6.38-1.58-1.94Z"/>
                    <path class="cls-84" d="M144.4,323.64c-.94-.39-.9-1.41-.81-1.78s.72-1.04,1.23-.58c.45.4.85.91,1.21.89.91-.05,1.08-3.1.91-3.19-.43-.23-.9.7-1.13.41-.59-.78.32-1.31.76-1.35.6-.06,2.12-.52,2.04.67-.03.47-.92,1.25-1.1,1.92-.14.52.6.95,1.14,2-.74.81-3.11,1.49-4.25,1.02Z"/>
                    <path class="cls-227" d="M137.99,321.86c.03-.68.34-.79.69-.98.62-.35,1.37.11,1.88.3.62.23,1.62-.63,1.98.65.13.45-.38,1.03-.24,1.48.8,1.57-.96,3.09-2.09,3.97-1.23-1.99-.68-3.67.91-4.96-1.49-.44-2.33.28-3.14-.45Z"/>
                    <path class="cls-53" d="M143.78,318.76c.49-6.18.6-2.48,2.09-5.66,1.99,1.38-.79,5.24-2.09,5.66Z"/>
                    <path class="cls-221" d="M189.85,320.02c.39.6-.49,1.73-1.33,1.98-1.22.37-1.7.17-2.87-.96s1.39-.64,4.2-1.02Z"/>
                    <path class="cls-208" d="M163.87,280.15c-.34-.03-.24,1.44-.83,1.26-1.27-.41-.68-1.31-.63-1.79.09-.97,1.4-.99,2.34-.82.72.07.74.29.87.53.26.48.09.98-.12,1.16-.51.44-.78-.25-1.62-.34Z"/>
                    <path class="cls-151" d="M172.18,319.7c-1.79.79-3.15-2.03-3.02-1.45-.07-.3.05-.66.27-.72.7-.2.69.35.88,1.13.81-.16.66-1.15,1.47-1.41.51-.16,1.19.61,1.17,1.03-.03.65-.32,1.22-.77,1.42Z"/>
                    <path class="cls-170" d="M181.41,324.3c.92.45-3.01,1.54-3.24,1.25-.29-.38-.72-1.64.15-1.57,1.11.08,2.22-.47,3.1.33Z"/>
                    <path class="cls-195" d="M151.12,319.35c-.43.56-.46,1.13-.75,1.26-.57.26-.64.02-.77-.21-.55-.96.77-3.23.23-3.04.72-.25.91-.19,1.26-.05.53.22.82,1.02.03,2.03Z"/>
                    <path class="cls-124" d="M166.74,268.46c-.46.23-.78.23-1.21.25-.28.01-.54-.22-.4-.74.01-.04,1.6-1.58,2.21-.7.33.47.07.85-.6,1.19Z"/>
                    <path class="cls-233" d="M154.64,303.75c.36-.69.94-.31,1.19-.18.6.3.82.76.43,1.15-.35.35-.67.52-1.01.46-.5-.09-1.03-.59-.6-1.43Z"/>
                    <path class="cls-220" d="M164.37,320.9c-.39.49-1,.03-1.15-.23-.19-.34-.39-1.25.22-1.41.73-.19,1.46.97.93,1.64Z"/>
                    <path class="cls-214" d="M157.07,295.66c.38-.71.38-1.77,1.3-2.04.59.83-.29,2.29-.66,2.42-.28.1-.4-.13-.64-.38Z"/>
                    <path class="cls-160" d="M181.13,285.31c-.46-.98-1.25-1.59-.53-2.43.31-.36.77.64,1.03.95.31.37-.32.98-.5,1.48Z"/>
                    <path class="cls-58" d="M164.45,281.2c.21-.33.9.2,1.11.29.28.12-.2.57-.37.73-.41.4-1.33-.12-.74-1.02Z"/>
                    <path class="cls-227" d="M137.99,321.86c-.15.3.1.84-.32,1.04-.47.22-.77-.07-.79-.7,0-.31.1-.84.65-.62.15.06.19.15.45.28Z"/>
                    <path class="cls-119" d="M162.56,304.97c-.01-.27.79-.11.99-.12s.33.33.26.72c-.05.24-.52.36-.71.26-.18-.09-.5-.2-.53-.85Z"/>
                    <path class="cls-133" d="M156.71,305.89c.33-.2.43,1.19.03,1.36-.15.06-.38-.41-.53-.48-.36-.16-.07-.54.51-.89Z"/>
                    <circle class="cls-179" cx="178.93" cy="311.19" r=".55"/>
                    <path class="cls-215" d="M165.99,306.37c.34-.19.42,1.19.03,1.36-.15.07-.39-.41-.54-.47-.32-.14-.09-.55.51-.89Z"/>
                    <path class="cls-164" d="M172.32,301.61c-.03-.47.65-.17.76.04.09.16.08.52-.21.72-.15.1-.52-.29-.55-.76Z"/>
                    <path class="cls-85" d="M167.31,315.83c.19-.48.54.18.69.27.21.13.09.44-.07.47-.39.09-.91,0-.62-.74Z"/>
                  </g>
                </g>
                <g>
                  <path class="cls-166" d="M144.26,339.52c.64.2,1.13-.36,1.54-.55.88-.4.18-1.55.85-2.66-.74-.87-1.11.65-1.87.7-.42.02-.77-.74-1.09-.85-.49-.18-1.09.21-1.06.72.04.71.47,1.3,1,1.26.31-.03.38-.06.64.16.61.51.56.66-.02,1.24-.39-.12-.56-.6-1.04-.43-.14.05-.12,1.77.09,1.22-.27.69-.49.8-.77.83-.41.05-.67-.07-.73-.64-.09-.8-1.24-.84-1.78-.75-.64.11-.67,1.31-.96,1.82-.62,1.09-.84,1.57-2.14,1.26-1-.23-1.02-2.83-.25-2.82.22,0,.56.75.84.7.44-.08.41-.96.37-1.34s-1.02-.72-.98-1.4c.03-.53,1.59-1.51.74-1.79-.72-.18-1.48-.1-1.91-.07-.31.02.22.95-.92,1.22-.35-.67.4-1.2-.12-1.3-.74-.15-1.35,0-1.57.24-.17.18.28.98.04,1.07-.52.2-.77.97-.26,1.4.16.14.46.25,1.01-.2.16-.13.19-.12.06.12-.02.63-.04,1.32-.27,1.56-.19.2-3.07-3.48-1.76-.82.16.34.3.57.36,1.24,1.06.32,1.81.89.11.73-.61.65.24,1.45.61,1.85.66.73,1.14-.11,1.99.38-1.38.52-.79.56.08,1.66l-11.84.3.08-6.53c.04-2.87-.29-5.79.64-8.74h16.75s8.35-.31,8.35-.31c1.97-.07,2.97-.11,4.67.4s4.14-.95,6.07.07c.44.23.35.96,1.07.66,3.69-1.49,3.5-.46,5.13-.65l2.21-.25c2.18-.25,4.09-.08,6.16.14,3.64.38,7.2-.59,10.79.09.97.19,2,.6,2.85-.08l1.14,3.77,3.73,10.67c-1.92.79-9.97.43-12.7.44l-30.5.15c0-.65.65-.7.22-1.05s-.67-.65-.75-.19c-.03.16,0,1.03-.22,1.04-4.66.29-9.13.15-13.71.1.36-1.03.7-1.63,1.12-1.89-.24,2.96,3.01-1.23,4.37.93.85,1.35,2.14.15,2.85-.07s1.64,1.06,2.95-.01c.56-.45.43-2.04-.74-2.25-1.07-.2-1.41-1-2.04-1.48.86-.16,1.24.13,1.51-.29s-.41-.42-.71-.28c-.16.07-.08-.42-.27-.46Z"/>
                  <g>
                    <path class="cls-171" d="M179.76,339.29c-.82.21-.8-1.93-.43-2.68-.58.5-.95,1.08-1.7,1.46.21.54,1.01.58.81.75-.36.31-1.11.51-1.22.29-.93,2.75-.91.94-.36.22.19-.25-2.59,1.14-.66-.44-2.5,2.08-1.29-1.33-.43-1.67.14-1.04.86-1.02.81-1.39-.1-.74-.62-1.18-.98-1.27-1.73-.41-1.39,1.63-2.53.85-1.59-1.08,1.31,2.75-.24,2.88-1.02.09-.76-2.23-1.97-1.56-.49.27.55.64.03.81-.19.06-.37.52-.53.48-.3-.07-.1-.79.2-.92.14-.06-.05.16.24-.56-.34-.55-.74-.73-.95-.97-.51-.6.63-.23.84-.72-.42-.58-.26-.63-.17-.76.2-.28.34-.43.49-.47.47-.11.5.58.85.95.48-.87.66-3.27,2.15-3.23,1.04.03,2.01-.02,3.01-.09,1.28-.09,2.53.78,3.79-.09,1.74-1.21.38,4.94.95,3.45-.69,1.82-2.41,1.09-1.22,2.53.23.27,1-.2,1.63-.14.57-1.17-.35-2.62.05-4.03.1-.34,1.17-.26,1.24-.58.06-.27-.32-.83.5-1.17.29-.12.45.47.65.55.84.3.94-.36,1.84-.48.65-.09,1.05.29,1.02.85,0,.12-3.82,3.27-3.47,2.67l-2.31,4c-.15.26-1.26.27-1.94.45Z"/>
                    <path class="cls-20" d="M148.45,338.34c.59-1.06-.03-.92-.65-1.8.96-.48,2.01-1.63,3.25-1.85.78-.14,1.08,1.03,1.17,1.57.12.72-.98,2.35-1.85,2.45-.8.1-.45-1.78-1.91-.38Z"/>
                    <path class="cls-149" d="M154.59,341.77c-.07,1.57-.79,2.61-2.24,2.26-.95-.23-2.05-1.15-1.33-2.43-.58-.18-.88-.2-.92-.39-.06-.26.04-.85.38-.66,1.87,1.01,5.64-.57,4.11,1.22Z"/>
                    <path class="cls-171" d="M158.25,331.36c-.14,1.31-1.56,2.4-2.51,2.49-.83.08-1.54-.54-1.78-.98s.5-1.81.9-1.54c1.31.86,1.85.71,3.39.03Z"/>
                    <path class="cls-144" d="M144.26,339.52c.58-.58.63-.73.02-1.24-.26-.22-.34-.18-.64-.16-.53.04-.96-.54-1-1.26-.03-.51.56-.89,1.06-.72.33.12.68.88,1.09.85.76-.04,1.12-1.56,1.87-.7-.67,1.12.03,2.27-.85,2.66-.41.19-.9.75-1.54.55Z"/>
                    <path class="cls-1" d="M151.93,331.87c.89.54-.37,1.22-1.03,1.46-.42.15-1.93.07-1.7-.28l.42-.64c.05-.07-1.21-.17-1.04-.96.77-.22,2.33-.2,3.35.42Z"/>
                    <circle class="cls-173" cx="126.74" cy="336.65" r=".48"/>
                    <circle class="cls-271" cx="167.28" cy="337.14" r=".48"/>
                  </g>
                </g>
                <g>
                  <path class="cls-98" d="M46.58,202.87c-.05-.3.07-.66,0-.84.18.44-3.73-1.43-3.86-1.4-.98.26-1.88.41-2.41-.21-.51-.59.12-1.47.79-2.24.37-.43-1.8-1.08-1.66-.4.19.93-.17,1.95-.65,2.38-.96.87-1.69-.6-2.48-.96-.49-.23-1.31-.06-1.81-.21-.89-.26-1.41-.51-1.24-1.64-.67.44-.5.88-.69.95-.4.16-.57-.14-.73-.28-.22-.18.24-.86-.07-1.08-.47.02-.45.77-.7.83-.31.08-1.27.22-1.46-.13-.15-.28.76-.77-.2-1.37.92-2.06-5.58-5.68-6.11-4.34.25.36.43.71.18,1.22-.2.41-.6.03-1.36.04-.45,0-.54,1.13-1.16.87.62-1.04-.5-1.62-.04-2.21,1.43-1.85,2.78-.94,1.47-2.07-.37-.32-3.32.64-2.47.72.64.06-4.22-2.48-4.22-1.63,0-.48-.18-.85-.09-1.06.33-.79,8.19,1.83,9.56,2.41,5.74,2.43,9.35,2.59,16.04,4.5l13.2,3.78,9.24,2.42c2.35.61,4.39,1.7,6.69,2.09,4.97.84,9.6,2.64,14.48,3.82-1.73,1.3-7.21-2.05-8.48-1.42s-.63,1.77-1.13,2.44c-.58.78-.88,1.8-1.05,2.58-2.99-.32-10.72-3.08-11.42-3.1-2.73-.09-4.52-1.41-6.58-1.96-3.04-.81-6.35-1.28-9.57-2.51Z"/>
                  <path class="cls-83" d="M3.56,174.28c-.29,1.79-1.03,3.41-.15,5.57.65-.16,1.53-1.17.81.56l32.81,9.38c.34-1.38.9-1.45.7-.01,1.19.92,2.89.81,4.43,1.39,2.85,1.07,5.71,2.25,8.67,2.5.49-1.15.67-.39.46.44l5.59,1.29c.58.13.81.53,1.56.61.92.09.6-.37,1.17-.97.14,1.6.44,1.63.72.65.2-.72.39.61.52.71.81.59,2.25.97,3.15.95.2-.31.17-.9.61-1.18,1.47-.93-.19,1.2.02,1.49.17.24.77.22,1.22.62.85-.63.85.1.75.72l-59.69-17c-1.5-.43-2.52-1.52-4.33-1.62-.4-1.99-.07-5.63.04-5.44-.12-.21-.04-.74,0-.98.34-.02.7.08.94.33Z"/>
                  <path class="cls-236" d="M29.42,196.28c.95.6.04,1.09.2,1.37.19.35,1.14.21,1.46.13.25-.06.23-.81.7-.83.31.22-.15.9.07,1.08.17.14.33.44.73.28.19-.08.02-.52.69-.95-.17,1.13.35,1.38,1.24,1.64.5.15,1.32-.01,1.81.21.79.36,1.53,1.83,2.48.96.47-.43.84-1.45.65-2.38-.14-.68,2.03-.03,1.66.4-.67.78-1.3,1.66-.79,2.24.54.62,1.43.47,2.41.21.14-.04,4.04,1.83,3.86,1.4.08.19-.05.55,0,.84-3.4-.8-6.74-1.64-10.19-2.66-.39-.11-14.88-3.45-12.3-4.31.55.1.82.75,1.21.68.19-.03.49-.34.94-.68.86,1.01,2.07.45,3.18.37Z"/>
                  <path class="cls-12" d="M184,215.62c-.12-.18.74-.51.38-.91-.2-.23-1.03-.82.16-.59.69-1.29-.14-2.89.42-4.35.25-.64.63-2.24,0-2.68-.99-.68-1.29-.83-1-1.73.25-.77,1.5-1.54,1.77-.79.45,1.22.42,1.67.31,2.64l-.43,3.77c-.33,2.86-.09,5.7-1.27,8.66-.72-1.41.64-2.56-.33-4.03Z"/>
                  <path class="cls-140" d="M5.54,191.57c-.73,1.98-2.69-7.6-2.45-8.53,1.32.92,2.26,1.05,3.48,1.32-.91.72-1.45-.16-2.13.44-.64.57.86,5.92,1.1,6.76Z"/>
                  <path class="cls-196" d="M20.21,195.44c-2.47.22-4.57-.73-6.81-1.86-1.11-.56-2.96.34-3.45-1.07,1.19.37,2.48,0,3.72.27.28.06.52.69.9.73.52.06.69-.18,1.21-.71.64.31.52.54.04,1.03,1.33.99,3.21.41,4.39,1.61Z"/>
                  <path class="cls-256" d="M180.25,239.88c-.25-.65,1.84-11.22,3.11-9.61-1,1.21-3.06,12.57-3.11,9.61Z"/>
                  <path class="cls-100" d="M183.82,239.88c-.21.52-.4,5.49-2.08,5.41.75-2.05.71-4.08,2.08-5.41Z"/>
                  <path class="cls-156" d="M188.7,208.64c.14.49-.47.61-.49.21-.02-.35-.21-.64-.75-.75-.46-.78.37-1.77.23-2.95.74.31,1.16.47,1.52.79-.75.48-.93.72-1.01,1-.2.65.31,1.07.5,1.7Z"/>
                  <path class="cls-100" d="M183.82,239.88c-.39-1.82-.13-3.67.9-5.42-.1,2.06-.26,3.86-.9,5.42Z"/>
                  <path class="cls-62" d="M11.19,191.28c-.29-.25.29-.77.23-.98-.09-.28-.72-.42-.92-.91-.07-.44,1.04-.23,1.44.03.29.19.52.61.15,1.2-.19.3-.13,1.33-.89.66Z"/>
                  <path class="cls-175" d="M13.94,186.93c-1.43.74-2.18-.46-3.59-.33-.52.05-1.26-1.69,3.59.33Z"/>
                  <path class="cls-70" d="M20.21,195.44c1.06-.1,2.42-.34,2.98.93-1.15.07-2.29-.23-2.98-.93Z"/>
                  <path class="cls-34" d="M7.51,192.03c-.3.07-.8.51-1.18.42-.31-.07-.82-.56-.78-.88.55-.15.6-.67,1.02-.29.55.51.97.05.95.75Z"/>
                  <path class="cls-73" d="M9.95,192.51c-.67-.21-2.26.58-2.44-.48.6-.15,2.15-.38,2.44.48Z"/>
                  <path class="cls-90" d="M185.07,233.57c-.46-.69-.42-1.55-.05-2.52.46.69.42,1.55.05,2.52Z"/>
                  <path class="cls-111" d="M145.22,226.72c.51,0,1.12-.24,1.54.23-.97.8-1.19-.13-1.54-.23Z"/>
                  <path class="cls-102" d="M187.33,231.34c.19-.48.54.17.67.26.31.2.1.45-.06.48-.36.09-.91,0-.61-.74Z"/>
                  <g>
                    <path class="cls-60" d="M301.04,198.91c-21.67,10.88-36.28,18.24-56.33,33.69-4.75,3.66-10,6.77-15.07,9.99-4.24,2.69-8.88,4.04-13.6,5.84v-19.78c.25-.02.52.09.99-.08v-12.53c-.46-.17-.74-.06-.99-.08-.21-.65.25-1.27.18-1.87,1.58,0,1.04-1.89.98-4.88l-.12-5.95c0-.43-.04-.8-.29-.97-.2-.14-.42-.28-.68-.07l.32-28.29h15.3c7.99-.02,15.73-.08,22.9-1.43.65-.12,1.79-.09,2.01.51,2.23,6.13.92,1.33-3.46,10.05,3.73,0,6.38-2.25,9.38-3.65,4.92-2.31,10.13-7.05,14.02-7.09l22.96-.22c1.48-.01,2.25,1.36,2.33,2.47.46,5.82.21,11.49.18,17.46,0,1.95.47,4.06-.45,5.87-.16.31-1.05.45-.99.81.02.13.23.16.42.21Z"/>
                    <g>
                      <path class="cls-3" d="M216.05,228.65l.12-7.89c.03-1.7.37-3.29-.12-4.81.24.02.52-.09.99.08v12.53c-.46.17-.74.06-.98.08Z"/>
                      <path class="cls-19" d="M216.22,214.08c-.26-2.3.54-4.68.04-7-.37-1.73-.16-3.34-.14-4.87.26-.2.48-.06.68.07.25.17.28.54.29.97l.12,5.95c.06,3,.6,4.88-.98,4.88Z"/>
                      <path class="cls-292" d="M300.01,180.18c.42,1.04-.82,1.49-1.18,1.75-.51.38-1.4-.38-2.27-.24-.73.12-1.1,1.12-1.63,1.14-.71.03-2.16-.01-2.2-.98-.17-3.29,4.65-4.98,4.46-5.12,1.11.8,2.26,2.06,2.82,3.44Z"/>
                      <path class="cls-24" d="M294.55,191.85c-.48-.39-.67.39-1.1.66-.47.29.04.75.5.98.26.12.53-.38.78-.38.16.51.23.91.18,1.18-.06.31-3.52.8-4.41-.95-.21-.41.7-.89.52-1.55-.13-.48-.96-.52-1.33-1.1-.44-.69.94-2.36,1.53-1.61.56.71.33,2,1.49,2.01.42,0,1.1-.35,1.39-.13.22.16.16.64.44.9Z"/>
                      <path class="cls-31" d="M241.87,225.58c.97.02.38,1.11.05,1.41-.39.37-1.81,1.18-2.07.33-.62-1.97-.7-9.72-1.8-11.29.67-.71,1.32-.63.77.42,1.37,2.13.63,8.79,1.35,9.32.45.33,1.01-.22,1.71-.2Z"/>
                      <path class="cls-77" d="M235.26,223.55c1.84-3.55-1.07-1.78.26-4.23.27-.04.64.19.83.05.43-.33.64-.86.97-1.48.2,1.98.18,3.87-.8,5.91-.52,1.09.45,2.84-1.26,3.55.31-1.25.54-2.67,0-3.8Z"/>
                      <path class="cls-32" d="M228.1,186.27c-1.43.11-2.16-.39-2.19-1.29-.02-.65.49-2.16,1.55-1.62,1.25.64,1.63,2.07.64,2.91Z"/>
                      <path class="cls-130" d="M229.79,202.32c.22-.37-.44-.76-.78-.98-.25-.16-.85.41-.71.76-.43-.64-.81-1.16-.38-1.9.39-.68.75-.68,1.18-.61.78.13,1.62.38,1.67,1.27.03.58.34.91.03,1.19-.39.34-.68.08-1.01.27Z"/>
                      <path class="cls-129" d="M234.45,233.18c.06.95.53,1.68-.63,2.31-1.16-3.38,2.13-4.43.9-7.53,2.56.16-.27,5.28-.27,5.22Z"/>
                      <path class="cls-193" d="M281.96,189.78c.64-.36,1.16.08,1.44.6.19.34-.2.85-.88,1.3-.26.18-.48.15-.97-.46-.27-.34-.56-.9.4-1.44Z"/>
                      <path class="cls-11" d="M231.42,187.98c.39.3-.06.73-.33.79-.35.08-3.34-2.27-2.2-2.4.96.37,1.66.94,2.53,1.62Z"/>
                      <path class="cls-117" d="M268.47,204.94c-.17.93-1.32.77-1.75.47-.54-.36-1.6-.93-1.17-1.64.78.94,1.74.31,2.92,1.16Z"/>
                      <path class="cls-251" d="M267.48,194.2c.59-.42,1.12-.1,1.35.46.13.32-.17.97-.61,1.27-.28.2-.65.22-1.03-.12-.56-.5-.34-1.17.28-1.62Z"/>
                      <path class="cls-269" d="M248.61,219.89c.4.32-.62,2.28-.53,2.38-.48-.53-.81-.38-1.04-.5-.38-.2-.47-.95.46-1.01.72-.04-.36-.61-.14-.73.36-.2,1.06-.3,1.25-.15Z"/>
                      <path class="cls-44" d="M234.1,182.12c.57-.08.77.2.82.42.11.53-.26.9-.56.93-.37.04-.66-.02-.83-.28-.23-.35-.12-.97.58-1.07Z"/>
                      <path class="cls-67" d="M294.55,191.85c.47.42.47.78.52.92.06.17-.13.33-.33.33-.25,0-.53.5-.78.38-.46-.22-.97-.68-.5-.98.43-.27.62-1.04,1.1-.66Z"/>
                      <path class="cls-273" d="M278.11,200.3c.25-.44.59-.22.92-.11.3.1.75.35.23.71-.24.16-.32.19-.48.22-.27.05-1.01-.22-.66-.82Z"/>
                      <path class="cls-261" d="M233.36,236.46c1.44-.53-.19,2.05.04,1.96-.29.12-.58.02-.74-.24-.15-.25.81-1.75.7-1.71Z"/>
                      <path class="cls-14" d="M293.36,184.29c.3-.23.67-.11.71.14.06.47-.18.74-.35,1.01-.28.44-.53.05-.76-.15-.44-.41-.02-.67.41-.99Z"/>
                      <path class="cls-147" d="M249,211.55c-.5-.49-.39-1.32.52-1.94.5.49.39,1.32-.52,1.94Z"/>
                      <path class="cls-152" d="M286.71,174.71c-.78.34-1.37.37-1.72.06-.07-.23.47-.7.7-.83.33-.19,1.33.62,1.02.77Z"/>
                      <path class="cls-167" d="M280.15,181.87c.25-.28.53.16.66.25.36.26.02.69-.26.82-.2.1-.62.43-.88.01-.12-.2.17-.74.48-1.09Z"/>
                      <path class="cls-285" d="M221.4,241.15c.38-.45.81-.83,1.29-1.29.34.55.21.93.18,1.24s-.41.4-1.47.05Z"/>
                      <path class="cls-272" d="M229.79,202.32c-.57.34-.89.58-1.19.22-.1-.12-.29-.19-.3-.44-.14-.34.46-.91.71-.76.34.22,1,.61.78.98Z"/>
                      <path class="cls-180" d="M220.07,197.01c.33-.32.73-.12.87.13.35.57-.84,1.14-.74,1.18-.38-.13-.39-1.07-.14-1.31Z"/>
                      <circle class="cls-199" cx="277.1" cy="174.93" r=".55"/>
                      <path class="cls-69" d="M274.77,202.51c.16-.45.51.17.64.26.44.29-.05.5-.28.75-.41.46-.7-.08-.36-1.01Z"/>
                      <circle class="cls-264" cx="286.31" cy="194.4" r=".48"/>
                      <circle class="cls-268" cx="284.49" cy="199.41" r=".48"/>
                      <circle class="cls-68" cx="265.8" cy="190.98" r=".48"/>
                      <circle class="cls-239" cx="274.1" cy="174.86" r=".48"/>
                      <circle class="cls-249" cx="280.59" cy="174.02" r=".48"/>
                    </g>
                  </g>
                  <g>
                    <path class="cls-91" d="M301.04,198.91c-.18-.05-.4-.08-.42-.21-.06-.36.83-.5.99-.81.92-1.81.44-3.92.45-5.87.03-5.97.28-11.65-.18-17.46-.09-1.11-.86-2.49-2.33-2.47l-22.96.22c-3.89.04-9.1,4.78-14.02,7.09-2.99,1.4-5.64,3.65-9.38,3.65,4.38-8.73,5.69-3.92,3.46-10.05-.22-.61-1.36-.64-2.01-.51h-37.73c-.81.01-.68-2.75.23-2.75l44.78-.08,7.58.31-6.58,3.54c-.04-.57-.86-.74-1.52-1-.39-.16-.56.56-.42.74.31.39.86.21,1.94.26l-2.73,2.92,11.13-6.55c10.73-.45,21.11-.74,31.99-.13l-.13,27.65c0,1.33-1.58,1.23-2.15,1.52Z"/>
                    <g>
                      <path class="cls-280" d="M269.29,173.95c-3.76,3.88-8.74,6.38-13.57,7.9-.08-1.79.57-1.78,1.05-1.26l12.52-6.65Z"/>
                      <path class="cls-276" d="M259.65,172.5c.69.06-.07.87-.39.9-.38.03-.54-1.03-1.34-.87-.73-.44.03-.54.39-.58.56-.06.62.48,1.34.55Z"/>
                      <path class="cls-293" d="M259.22,178.01c-.57.41-.76.65-.92.82-.11.12-.65.08-.7-.24-.03-.24.67-.57.82-.91.53-.62,1.38-.37.79.33Z"/>
                      <path class="cls-145" d="M262.92,173.5c-1.07-.05-1.63.13-1.94-.26-.14-.18.02-.9.42-.74.66.26,1.48.44,1.52,1Z"/>
                      <path class="cls-280" d="M269.29,173.95c.45-.93,1.29-1.36,1.98-.72-.89.35-1.32.87-1.98.72Z"/>
                    </g>
                  </g>
                  <g>
                    <path class="cls-110" d="M119.88,217.45c-.09,1.05-3.68-2.11-3.58.11,1.38.65,2.65,1.47,4.16,1.66.33.04.45-.92.26-1.09s-.42-.49-.84-.68c1.82.47,4.85-.07,6.74,1.83,1.25-.91,1.43.73.31.62-.61-.65-1.19-.76-1.44-.58-.23.17-.87.4-.6.84.43.71.87,1.26,1.54,1.11.44-.1,1.02-.44,1.63-.3.19.19-.88,1.22-.17,1.28,3.34.32-.44-1.85,1.95-2.3-.77.14,7.36,1.65,6.42,3.19-.15.54-1.1,1.61-1.05,2.16-.8-.1-1.25-.83-1.93-.6-.39.13-.99.2-1.25.96,3.9,1.1,2.65-.98,3.54,1.04-.21-.31-.65,0-1.36.01-.39.01-.01.45.28.74.37.36.7.36.99-.01.21-.27.39-.44.09-.73,2.4.52.15.12,1.44-4.02,3.21.92,6.14,1.94,8.21,4.04-1.35-.37-4.24-.89-5.61.67-.02-1.1.44-1.43-.44-1.77-.39-.15-1.41-.4-1.32.61.07.8-1,1.07-.55,1.5.49.48.82,1.45,1.52.85.65-.94,1.14-.44.97.62.59-.75,1.27-.47,2.5-.57.14-.64-.89-.35-1.08-.97.92-.7,2.42-.78,3.51.07-.88.29-1.92.28-1.8,1.35.05.44.29,1.05.92,1.48-.15.52-.35.61-.31.92.04.36.4.71.57.63l1.06-.49c.29-.13.64-.48.73-.36.11.14.4.45.31.57s-.53.11-1.08.61c1.11.59,2.54,1.25,4.02,1.48.16.94.27,1.89.85,2.46,1.04,1.03,1.62,1.44,3.11,1.05-.38.61-.56.8-.68,1.48-11.31-9.6-22.76-13.03-36.91-16.99l-14.72-4.11c-3.92-1.1-17.37-4.54-18.7-5.74-.21-.19-.69-.11-.76-.45-.21-1.03.16-1.93-.56-1.58.18-1.11,1.37-1.01,2.72-1.19.54-.07.9,1.05,1.69,1.09.54.02.71-.68.88-1.11.3-.79-.73-.82-.94-1.74,1.55.15,2.44.7,4,.63-1.41-.35-.49,8.86.04,4.25.05-.48.91-.58,1.09-.92.3-.54-.01-1.56.17-2-.42-1.67,11.1,2.42,12.48,2.53.2.84-2.34,6.44.03,4.28.03-.03,1.06-4.28.38-3.29,1.09-1.59,2.42.45,3.42.69,2.33.57,4.53.58,6.81,1.64s4.55,1.4,6.34,2.56Z"/>
                    <g>
                      <path class="cls-15" d="M82.1,212.07c-1.07.6-2.53-.14-3.35-.98.26-.41.73-.32.82-.11.07.16.32.63.74.64.53-.34.39-1.08.47-1.57.73-.35.35.55.56,1.58.07.34.54.25.76.45Z"/>
                      <path class="cls-253" d="M124,220.4c1.98,3.03,1.81.17,3.35,2.57.28.44.22,1.62-.5,1.59-2.22-.11-3.77-1.55-5.32-1.8-1.12-.18-1.66-.09-1.29-1.43.24-.89.84-1.49,2.04-1.06-.3-.52-1.37-1.63-.68-1.94.82-.36,1.89.73,2.01,1.36-.47.37-.58.27-.68.42-.25.37-.17.65.09.74.35.12.57-.19.98-.46Z"/>
                      <path class="cls-52" d="M100.52,215.92c-.54.5-3.29-.57-2.74-.17-.48-.34-.48-.81-.7-1.3-.21,1.24-.38,2.15-.75.79-.46-.23-.76-.3-.9-.51-.26-.39-.3-.7-.15-1.02.2-.44,4.64.16,4.32.1.51.11.82.79,1.28.97.51.2-.03.84-.36,1.14Z"/>
                      <path class="cls-148" d="M119.88,217.45c.42.18.65.51.84.68s.07,1.13-.26,1.09c-1.51-.19-2.78-1.01-4.16-1.66-.1-2.22,3.49.95,3.58-.11Z"/>
                      <path class="cls-45" d="M93.87,212.04c-.81-.14-.62-.68,0-.97.26-.85.93-.73,1.36-.64.88.19.82.81.36,1.57-.27.44-.85.19-1.72.03Z"/>
                      <path class="cls-222" d="M92.06,211.13c.34-.17.65.21.77.34.27.3.02.74-.21.89-.36.24-.85.3-1.05-.19-.11-.27-.13-.73.49-1.04Z"/>
                      <path class="cls-148" d="M135.57,226.7c.3.3.12.46-.09.73-.29.37-.62.37-.99.01-.3-.28-.67-.73-.28-.74.71-.02,1.16-.32,1.36-.01Z"/>
                    </g>
                  </g>
                </g>
                <path class="cls-61" d="M277.43,342.85c-.28.38-.02.68.13,1.06-.41-.12-.43.46-.65.49-.16.02-.42-.5-.67-.54,0,1.03-.33,1.08-1.14,1.05-.99-.03-1.65.14-1.84-.74-.03-.15,1.33-3.41.81-3.05-.37.25,2.38-.12,2.47.36s-.08,1.06.32,1.2c.16.06.32.23.56.17Z"/>
                <path class="cls-86" d="M277.01,331.81c-.36.56-.47.88-.26,1.58.17.58-.66,1.43-1.17,1.39-.53-.04-1.69-.04-1.5-.66.25-.47,1.01-.34,1.29-.33-.88-1.18.38-2.01,1.13-2.53.21.11.62.09.51.56Z"/>
                <g>
                  <path class="cls-216" d="M228.2,290.12c.57-.02,1-.45,1.55-.68-.95-.25-1.33-.36-1.77-.64-.26-.16-.22.89.22,1.32-1.78-.04-1.44-2.48-3.61-.29.75-.82.49-1.66,1.83-2.26,1.5.73,4.48,2,5.96.73.83-.98,1.06-3.78,3.04-3.76.26.28.62.87.93.89.25.02,1.96-1.72,1.91-1.83-.15-.33.11-.81-.01-1.26-1.79-6.46-2.88-12.66-2.75-19.22.17-8.48,1.03-17.17,5.5-24.31-2.12,5.91-3.93,11.31-4.02,17.65-.07,5.4.07,10.31,1.18,15.69,4.98,23.95,19.88,44.06,41.46,55.94-1.41.99-2.92.83-4.55.83l-63.09-.12c1.76-6.1,2.46-11.92,2.79-17.99.37-6.9,3.42-6.4,3.61-6.62.15-.17-.29-.65.06-.87,3.9-2.41-.86.99,2.56-4.51.73.84.58,1.2,1.16.93.25-.12.2-.38.43-.73.32.12.53.85,1.42.54.45.38.42.86.7.86.32,0,1.14.02,1.17-.26.02-.23-.29-.94.16-1.15.35.12.54.98.92.94,2.19-.23.83-4.1.97-4.86.39.36.68.63.95.54.14-.05.58-.09.13-.5-.25-.23-.39-.71.48-.24.27-.11.46-1.44,1.11-1.16l-.3,1.32c-.05.21.88.23,1.12.34.3.14.96-.24.61-.63-1.98-2.18-.55-5.79-2.66-2.12.18-1.07-.47-1.82-1.19-2.51Z"/>
                  <g>
                    <path class="cls-119" d="M240.1,304.98c.8.63.14,1.21-.09,1.61-.38.63-1.24.89-2.01.85-.84.9,0,1.12.98.36.15.99-.06,1.95-.24,3.12s-1.71,1-2.46.77c-1.07-.34-1.41-1.28-1.81-2.45-.57-1.64-.43-4.04,1.59-4.55,1.45-.37,2.84.52,4.05.3Z"/>
                    <path class="cls-240" d="M242.16,301.55c-.34-1.04,1.07-.96.83-2.08-.39-.14-1.33.21-1.47-.22-.07-.22.96-.86-.29-.82-.6-.27.17-.59.5-.53.59.1.74.55.93.87.58-.13,1.86-.23,2.04.57-.53.73-1.42,1.53-2.54,2.21Z"/>
                    <path class="cls-262" d="M224.05,314.07c-1.14-.76-1.24-2.09-.25-3.06.98.16,1.39.74,1.43,1.39s-.23,1.28-1.18,1.66Z"/>
                    <path class="cls-23" d="M229.63,300.64c-1.33.7-1.07,1.66-1.64,1.76-1.28.24-2.14-.14-1.54-1.45.35.06.64.52.84.74.35.38.84-.14.99-.88.13-.65,1.39-.46,1.35-.18Z"/>
                    <path class="cls-177" d="M238.26,291c-.08.46-1.43-.22-1.68-.61s.14-1.56.81-1.34c.47.16,1.01,1.14.87,1.95Z"/>
                    <path class="cls-92" d="M229.78,299.05c-.33-.88.94-1.39,1.19-1.9.77.59.51.88.37,1.18-.23.5-1.2,1.69-1.56.72Z"/>
                    <path class="cls-187" d="M241.76,302.83c-.33-.06-.65-.55-.85-.75-.47-.45-.35.75-.65.7-.87-.25-.77-.9-.28-1.15s.61-.98,1.01-.46c.35.46,1.35.97.77,1.65Z"/>
                    <path class="cls-4" d="M271.23,326.15c-.81.3-2.33.42-2.48-.25.4-1.26,1.81-.19,2.48.25Z"/>
                    <path class="cls-297" d="M233.24,295.75c-.35-.69.31-.7.64-.7.67,0-.36-.66-.16-.81.79-.6,1.15.5.87,1.04-.18.34-.95,1.28-1.36.47Z"/>
                    <path class="cls-141" d="M234.31,290.7c-.36,1.14-.72,1.1-.74,0,.37-.67.86-1.28,1.29-1,.45.29.53,1.01-.55,1.01Z"/>
                    <path class="cls-200" d="M226.89,314.46c.22-.53.67-.24.88-.08.29.22.74.45.29.82-.2.17-.39.46-.55.37-.27-.16-.85-.56-.62-1.1Z"/>
                    <path class="cls-29" d="M228.2,290.12c-.44-.44-.49-1.49-.22-1.32.44.27.82.38,1.77.64-.55.23-.97.67-1.55.68Z"/>
                    <path class="cls-291" d="M215.72,311.59c-.33-.51-.18-1.15-.07-1.88.63.08.2.75.66.99.49.25-.29.97-.58.9Z"/>
                    <path class="cls-245" d="M230.18,309.55c-.95.49-1.59.11-1.94-.77.83-.14,1.18.3,1.94.77Z"/>
                    <path class="cls-56" d="M237.73,285.86c.18-.13.41.35.55.42.38.18.2.49-.03.48-.34,0-.63.07-.94,0-.46-.11-.1-.51.42-.9Z"/>
                    <circle class="cls-185" cx="239.98" cy="290.19" r=".55"/>
                    <path class="cls-66" d="M222.6,306.96c-.02-.34.65-.12.99-.17.16-.02.36.3.06.47-.14.08-.35.46-.51.49-.16.02-.51-.32-.54-.79Z"/>
                    <path class="cls-26" d="M243.51,307.03c.16-.45.51.17.64.26.44.29-.05.5-.28.75-.41.46-.7-.08-.36-1.01Z"/>
                    <path class="cls-158" d="M219.17,315.65c.18-.13.41.35.55.42.38.18.2.49-.03.48-.34,0-.63.07-.94,0-.46-.11-.1-.51.42-.9Z"/>
                    <path class="cls-6" d="M252.3,321.98c-.08-.75-.24-1.04-.66-1.35.6-.38,1-.2,1.03.08.05.48.23,1.04-.36,1.27Z"/>
                    <path class="cls-122" d="M240.1,304.98c.09-.75.58-.65,1.1-.63.41.02.31,1.01.06.86-.54-.42-.84.16-1.15-.23Z"/>
                    <path class="cls-278" d="M235.14,292.47c.07,1.26-.52,1.41-.59.27.05-.57.32-.79.59-.27Z"/>
                    <path class="cls-218" d="M244.6,318.7c-.03-.48.65-.16.76.03.09.16.06.54-.21.72-.15.1-.53-.29-.55-.76Z"/>
                    <circle class="cls-260" cx="235.17" cy="288.79" r=".48"/>
                    <path class="cls-155" d="M239.65,303.33c.52.27.3.54-.27.59-1.14-.08-.99-.67.27-.59Z"/>
                    <g>
                      <path class="cls-183" d="M245.35,326.74c-.75.13-1.42-.49-1.75-1-.27-.42.04-1.3,1.05-1.17-2.57-.84-.66-2.47.06-2.61,2.02-.39,3.25,3.02,2.97,3.45-.64.98-1.26,1.13-2.32,1.32Z"/>
                      <circle class="cls-188" cx="245.9" cy="323.38" r=".58"/>
                    </g>
                  </g>
                </g>
              </g>
              <g>
                <path class="cls-89" d="M203.64,130.55c-1.21.52-1.36-6.1-2.73-9.31-.86-2.01-1.65-3.76-1.31-5.8,1.41.67,1.64,2.31,3.15,3.43,1.52-3.14,3.63-5.4,5.7-7.66-.66,7.01-2.52,13.25-4.81,19.35Z"/>
                <path class="cls-237" d="M209.21,86.51c-.07.68.68.52,1.15.55.14,1.69.49,3.11.18,4.84-3.11-.08-5.98-.15-9.03-.71.26-.73.43-2.39-.46-2.71-1.87-.67-3.36.06-5.17-.47.72-1.16,1.97-.2,2.97-.32l10.36-1.18Z"/>
                <path class="cls-47" d="M199.61,115.44c-.34,2.04.45,3.79,1.31,5.8,1.36,3.21,1.52,9.83,2.73,9.31-.25.66-.15,1.39-.84,2.34-1.82-6.43-3.91-12.87-4.71-19.88.68.51,1.57,1.69,1.51,2.42Z"/>
                <path class="cls-163" d="M210.19,83.1c.1.47.61.78.54,1.17-.27,1.39-6.43,1.74-6.65,1.09.27-.25.17-.43.32-.59.34-.37,1.04-.02,1.58.27,1.04-1.34,2.55-2.32,4.21-1.93Z"/>
                <path class="cls-25" d="M210.42,66.48c-.27.02-.36-.2-.5-.06-.48.45-.63-.64-.9-.71-1.25-.17-3.67-.69-4.79.3-.39-.4-1.26-.34-1.35-.99,2.44-.38,4.83-.83,7.58-.21.09.66-.01,1.18-.03,1.66Z"/>
                <path class="cls-286" d="M209.7,43.06c.02,1.66-4.02.74-5.37.98.02-.24-.08-.51.07-.97h5.3Z"/>
                <path class="cls-213" d="M210.68,63.08c-.09,1.88-2.73-.63-5.37.98.02-.24-.08-.51.07-.97h5.3Z"/>
                <path class="cls-277" d="M210.19,53.32c-.06.72-3.58.55-5.37.59-.04-.11-.04-.27.09-.58h5.28Z"/>
                <path class="cls-212" d="M204.11,226.25c-.45-1.05-.41-2.19-.04-3.51.45,1.05.41,2.19.04,3.51Z"/>
                <path class="cls-13" d="M208.24,74.32c.04-.23-.11-.55,0-.73.23-.35.6-.55.96-.44.52.42,1.3-.78,1.73.48-1.17-.06-1.94.6-2.69.69Z"/>
                <path class="cls-169" d="M193.62,111.96c.4-.12.94.46.92.71-.03.4-.51.54-.75.64-.3.13-.77.03-.9-.42-.09-.32.06-.73.73-.93Z"/>
                <path class="cls-284" d="M204.11,220.39c-.46-.69-.42-1.55-.05-2.52.46.69.42,1.55.05,2.52Z"/>
                <path class="cls-212" d="M204.11,233.08c-.46-.69-.42-1.55-.05-2.52.46.69.42,1.55.05,2.52Z"/>
                <path class="cls-211" d="M206.28,30.92c-.49-.33-.93.31-1.48.1-.12-.55.22-.7.74-.67.38.02.84-.01.74.57Z"/>
                <path class="cls-191" d="M210.36,87.06c-.47-.03-1.22.13-1.15-.55.4-.05,1.02-.01,1.4.16.14.06.22.42-.25.39Z"/>
                <g>
                  <path class="cls-76" d="M215.08,110.41c-.93-.69-2.08-.16-2.5.81-.27.63-.42,1.92.14,2.63.4.51,1.54.54,2.29.52l-.19,69.87-1.05,113.24c-.17,18.11-2.96,35.67-10.75,52.05-.48-2.79.23-5.15.23-7.71l.05-31.13c-1.49,2.65-.07,9.24-.66,11.76-.34,1.48.18,3.09-.01,4.54-.71,5.43.02,14.36-.06,21.11-1.25-1.47-1.76-2.93-2.4-4.63-5.53-14.75-7.77-30.09-7.91-45.95l-.98-114.7-.19-43.93c-.03-7.38-.3-14.46.19-21.63,1.27,2.16.45,5.37.53,5.46.94,1.2,2.97,2.25,1.03,2.11-1.39,1.47-1.04,3.53.57,5.03-.59.21-1.15.01-1.31.48-.09.28.02,1.18.28,1.02.44-.26.56-.57.91-.28.17.14.01.62.46.79.33.12.49-.67.86-.49.24.12,1.12.77.77,1.08-.88.67-2.18-.26-3.16-.72.67,3.02-.38,3.48-.17,3.85.31.55,1.03.03,1.39.25,1.2.71-4.1,3.12-.97,2.55,0,1.41.74,3.54,2.36,3.21-.6-1.25-1.49-1.89-.88-2.53.31-.33.75-1.62,1.53-.77.35.98.97,2.01,1.54,2.93-.5.28-1.08.68-1.9.5-.5.88.25,1.81-.4,2.13-1.66.07-2.64,2.24-2.63,3.63.52.28.94-.05.56-.68-.18-.29.34-.07.56.02.53.22.01.86.22,1.02.4.31.97.76,1.45,1.2-.17-.43.61-1.14.77-1.08.46.19.53.52.17.99-.58.77.41,1.82,1.12,2.11-.3.43-1.66,5.46-.78,5.71-.86-.02-.96.21-1.37.52-2.01,1.5,4.17.74,3.89,1.53,1.46-4.92-2.26-3.07-.49-4.27,2.09-1.41-.76,2.6.61-3.55-.62-.14-1.23.32-1.86.07,1.36-1.95.78.39,2.54-1.84.13-.16-.05-.6-.22-.73-.53-.38-.87.58-1.16.51-.63-.13-.76-.38-.91-.52-.29-.29-.15-.55.05-.63.48-.19.68.09,1.23.37.41.21,1.31-.96.59-1.51s-.91-1.45-1.64-2.19c-.55-.56,1.28-1.01,1.22-1.36-.23-.83-1.15-1.42-1.62-1.95-.05,1.98,3.03-2.13,3.47-2.42-1.15-.65-1.31-.99-.11-1.29-.09-2.46.24-4.92-.13-7.34-.11-.71-.94-1.59.11-2.2l1.62,7.39.23,37.6v52.76s.67,72.19.67,72.19c.04,4.27-.28,7.93.41,12.22l1.68-14.2c1.48,2.94,2.13,5.77,4.35,7.95-1.03-3.25-2.4-6.01-4.28-8.88.58-39.99-.53-79.96-.67-119.94l-.05-13.43c1.74,3.16,5.62,9.18,5.46,12.41,1.47-.44,1.93,5.04,2.66,5.81.61-2.59-1.25-4.62-1.58-6.88-.31-2.13-5.2-10.19-6.11-12.88-1.07-7-.13-14.14-.54-21.31-.2-3.63.55-6.84,1.58-10.28,1.94-6.5,2.58-11.47,4.52-18.19.58-2,2.44-3.39,4.38-4.3.78,1.78.27,3.06.37,4.37Z"/>
                  <g>
                    <path class="cls-125" d="M204.06,216.92c-.39-.51-.29-1.11-.09-1.99.58.27.52.83.09,1.99Z"/>
                    <path class="cls-283" d="M196.96,151.09c-.72-.29-1.71-1.34-1.12-2.11.36-.48.29-.8-.17-.99-.16-.07-.95.65-.77,1.08-.47-.44-1.05-.88-1.45-1.2-.21-.16.32-.8-.22-1.02-.22-.09-.74-.31-.56-.02.38.63-.04.96-.56.68-.01-1.4.97-3.56,2.63-3.63.65-.33-.11-1.25.4-2.13.82.18,1.4-.22,1.9-.5.47.54,1.39,1.12,1.62,1.95.06.34-1.76.8-1.22,1.36.73.74.91,1.63,1.64,2.19s-.18,1.72-.59,1.51c-.55-.28-.75-.56-1.23-.37-.2.08-.34.34-.05.63.15.14.27.39.91.52.3.06.63-.9,1.16-.51.18.13.35.57.22.73-1.76,2.23-1.18-.11-2.54,1.84Z"/>
                    <path class="cls-104" d="M197.42,295.69c.73.68-.01,2.17.33,3.96-1.25-.15-1.73-1.45-2.37-.97-.44.33-1.17.84-1.59,1.75-1.23-2.51-.46-5.23-.69-8.56.63-.48,1.57-.63,2.55-.82-.41.91-1.09.66-1.17,1.34-.08.75,1.02.55,1.08,1.07l.26,2.21c.66-.05,1.31-.24,1.59.02Z"/>
                    <path class="cls-168" d="M196.96,151.09c.63.25,1.23-.21,1.86-.07-1.37,6.16,1.48,2.15-.61,3.55-1.77,1.2,1.95-.65.49,4.27.28-.79-5.89-.02-3.89-1.53.4-.3.51-.54,1.37-.52-.88-.25.48-5.28.78-5.71Z"/>
                    <path class="cls-288" d="M201.12,284.25c.15,2.22,1.15,4.77-.56,6.84l.03-24.87.53,18.03Z"/>
                    <path class="cls-128" d="M197.91,220.71c-.79,4.67-2.73,12.09-4.66,15.93.18-4.18,2.19-7.45,2.84-11.39.27-1.64.64-3.35,1.82-4.54Z"/>
                    <path class="cls-159" d="M193.59,178.34c.16-.53.21-1.26.56-1.98l5.52-11.25c.37.99.94,1.88.05,1.94l-4.18,7.99c-.58,1.1-.61,2.64-1.95,3.31Z"/>
                    <path class="cls-80" d="M197.76,263.77c-2.89.09-.44,1.88-2.81.42-.55-.34.37-3.9.22-3.56.37-.82,1.07-.01,1.64-.37.34-.21.33-1.1.9-1.03.32.04,1.13.04,1.03.52-.14.73-1.26.49-1.24.9.05,1.08,1.07,3.11.25,3.13Z"/>
                    <path class="cls-40" d="M195.13,242.21c-1.44-.36-.85-1.55-.89-2.41-.1-1.92-.38-3.53,1.17-4.78.41.76-.22,1.15-.28,1.49.22,1.88.42,3.57,0,5.69Z"/>
                    <path class="cls-135" d="M195.85,279.99c-.86-2.81-1.52-5.91-.04-8.97.38,2.97.31,5.77.04,8.97Z"/>
                    <path class="cls-157" d="M206.76,153.18c-.32.57-.75.26-1.21-.2-.38-.38-.39-.73.22-1.24.37-.31.64-1.07,1.4-.22.29-1.18-.16-1.93.25-3.02,1.61,1.04.65,2.96-.39,3.93-.77-.89-1.17.04-.26.75Z"/>
                    <path class="cls-95" d="M211.99,245.74c-1-2.12-1.76-4.08-1.7-6.45,1.14,2.01,1.85,4.03,1.7,6.45Z"/>
                    <path class="cls-157" d="M209.53,154.26c.53.06.62.78.68,1.05.07.3-.44.75-.77.72-.58-.06-.53-.62-1.03-1.33-.92-.33-1.05-.79-.22-.57.33.79.79.06,1.35.13Z"/>
                    <path class="cls-9" d="M211.44,128.1c-.8-1.2-.12-4.2-.52-4.45-.44-.28.08-.77.72-.99-.1,1.94.28,3.49-.2,5.44Z"/>
                    <path class="cls-159" d="M193.59,178.34l-1.2,3.95c-.87-.09.21-5.08,1.2-3.95Z"/>
                    <path class="cls-165" d="M210.17,148.1c-.07.77-.43.21-.74-.03-.45-.36.24-.43.3-1.02.07-.77.43-.21.74.03.45.35-.24.43-.3,1.02Z"/>
                    <path class="cls-202" d="M209.46,158.78c-.42-.32-.38-1.44-.03-1.93.44.42.67.59.77.74.16.27-.02.66-.74,1.19Z"/>
                    <path class="cls-39" d="M205.41,155.98c.54-.69,1.28.73,1.32.63-.16.46-.55.22-.73.26-.57.13-1-.36-.59-.89Z"/>
                    <path class="cls-217" d="M194.48,269.34c-.7-.44.13-.84.28-1.64.42.27.71,1-.28,1.64Z"/>
                    <path class="cls-182" d="M193.52,271.04c-.34.31-.55-.37-.42-.62.09-.16.35-.31.74-.74.46.28.37.75-.32,1.37Z"/>
                    <circle class="cls-238" cx="200.42" cy="263.81" r=".55"/>
                    <path class="cls-234" d="M208.88,214.93c.52.27.3.54-.27.59-1.14-.08-.99-.67.27-.59Z"/>
                    <path class="cls-143" d="M205.53,154.6c-.02-.46.64-.18.76.04.09.16,0,.57-.2.71-.15.11-.54-.28-.56-.75Z"/>
                    <circle class="cls-88" cx="210.26" cy="143.25" r=".48"/>
                  </g>
                </g>
                <g>
                  <path class="cls-71" d="M198.96,109.48c1.83.86,2.91,2.67,4.22,4.4.24-1.78,1.58-2.65,2.68-3.89,2.9-3.28,5.87-6.52,10.24-7.66,4.63-1.2,9.38-.67,13.63.31.46.11.99-.07,1.47,0-.07.4.19.42.49.49,8.46,1.92,9.51,7.57,10.81,4.93.28-.57-.78-.16-1.12-.51-2.54-2.57-5.5-4.07-8.71-4.91.91-.63,1.85-.78,1.93-2.19-9.98-2.11-18.62-5.27-28.17-5.52-.24-.07-.59-1.05-1.34-.62-.48.28.22.36.12,1.25-4.09-2-14.56.07-18.17.94l-6.2,1.49c-6.94,1.67-11.48,4.42-17.65-1.24-3.14,5.29-3.33,8.31,1.06,12.3l1.02-.55c-.28.55.26.97-.72,1.07-.52.05-.76.96-1.35-.12-.98-1.8-3.13-4-3.15-6.3-.02-2.75,2.19-4.97,3.53-7.25,5.17,5.35,9.48,3.12,15.48,1.27,20.42-6.3,33.17-4.6,53.08,1.54,4.11,1.27,7.45.39,10.46-3.02,1.5,2.26,3.51,4.65,3.35,7.32s-2.11,4.95-4.02,7.21c-4.56-4.55-9.89-6.58-15.77-7.41-12.02-1.69-15.98,2.84-23.32,12.14-1.62-1.96-2.69-3.76-3.88-5.48Z"/>
                  <path class="cls-30" d="M232.66,102.64c3.21.84,6.17,2.34,8.71,4.91.35.35,1.4-.05,1.12.51-1.3,2.63-2.35-3.02-10.81-4.93-.07-.24.09-.48.26-.49.25,0,.54-.05.72,0Z"/>
                  <path class="cls-106" d="M242.42,98.26c-1.61.86-2.88,2.55-5,2.24,1.71-1.2,3.63-1.54,4.93-3.51.85.57.75,1.13.07,1.26Z"/>
                  <path class="cls-8" d="M244.11,104.56c-.35-.21-.48-1.91.21-1.9,1.02.02.69,1.51-.21,1.9Z"/>
                  <path class="cls-116" d="M231.19,102.64c-.47-.07-1,.11-1.47,0-.07-.52.35-.5.73-.5s.82,0,.73.5Z"/>
                </g>
                <g>
                  <path class="cls-250" d="M232.66,102.64c-.18-.05-.47,0-.72,0-.16,0-.32.25-.26.49-.3-.07-.55-.09-.49-.49.08-.51-.36-.5-.73-.5s-.8-.01-.73.5c-4.25-.98-9-1.51-13.63-.31-4.37,1.14-7.34,4.38-10.24,7.66-1.1,1.25-2.44,2.11-2.68,3.89-1.31-1.73-2.39-3.54-4.22-4.4.47.68-.28-1.24-1.95-2.97.61-.07,1.24.34,2.09.81s2.43-.15,2.55-1.55c-2.21.34-4.34.38-5.71-1.73-.02-.26.58-.5.6-.69.02-.21-.1-.86-.34-.63-1.37,1.33-2.74.34-3.77-1-.16-.17-.45.37-.33.67.09.23.69.23.54.72-.75-.21-2.05-.19-2.44-.99-1.41-2.89-11.19.46-9.37-4.13l6.2-1.49c3.61-.87,14.08-2.94,18.17-.94.1-.89-.6-.98-.12-1.25.76-.44,1.11.55,1.34.62,9.55.25,18.19,3.41,28.17,5.52-.08,1.41-1.02,1.57-1.93,2.19Z"/>
                  <g>
                    <path class="cls-97" d="M197.01,106.51c-1.29-1.13-3.37-1.97-4.37-3.4.15-.5-.45-.49-.54-.72-.12-.3.17-.84.33-.67,1.03,1.34,2.4,2.33,3.77,1,.24-.23.36.42.34.63-.02.18-.61.42-.6.69,1.36,2.12,3.5,2.08,5.71,1.73-.13,1.41-1.75,2.01-2.55,1.55s-1.48-.88-2.09-.81Z"/>
                    <path class="cls-246" d="M201.86,102.96c-.58-.84-1.04-1.81-.53-2.62.66-1.03,1.79-1.17,3.01-.78.86.27,1.23.94,1.51,1.33.96,1.34-2.11,2-1.31,2.74,1.09,1.01-.19.49,2.18-1.8-.74-1.09-.76-2.05-1.38-2.6-.01-.24.1-1.66.39-2.19,1.12-2.02,4.9-1.37,7.1-.24.93.47,2.56.07,3.96.41l6.49,1.6c.47.12,1.01.07,1.23.24.51.4-.17.7-.13.96.07.42-.6,1.28-.67-.19-.5.56-.97.86-1.58.84-.83-.02-1.61.16-1.61-.98.33-1.09-.38-1.32-.79.05-.34-.3-.59-.91-.96-.98-.24-.05-.97.26-1.08.72-.08.35.43.7.2,1.17-.18.37-4.68,1.76-4.49,1.64-.89.54-1.54,1.62-2.46,1.19-.83,1.37-1.79,2.83-3.86,2.78.02-1.22,1.24-1.55.56-2.64-.8.55-2.58,2.04-3.44,1.57-.33-.18-1.09-.65-1.31-1.05-.17-.32.75-.93.3-1.21-.54-.33-1.01-.26-1.34.05Z"/>
                    <path class="cls-265" d="M205.36,99.23c.62.55.64,1.51,1.38,2.6-2.37,2.29-1.09,2.8-2.18,1.8-.81-.75,2.26-1.4,1.31-2.74-.28-.39-.66-1.06-1.51-1.33-1.22-.39-2.35-.25-3.01.78-.52.81-.05,1.79.53,2.62-.2.19-.49.42-.74.51-.9-.6-1.3-1.18-1.27-2.04.04-1.11,1.62-2.95,3.23-3.19.91-.13,1.63.41,2.28.99Z"/>
                    <path class="cls-246" d="M226.86,100.9c0-.77-.6-.82-.52-.42.16.78-.25.79-.41.65-.32-.29-.06-1.06-.3-1.55,1.35-.22,3.47.06,4.05,1.6-1.05.22-2.18.08-2.82-.28Z"/>
                    <path class="cls-81" d="M201.17,97.75l-2.1,2.97c-.3-1.48.86-3.12,2.1-2.97Z"/>
                  </g>
                </g>
                <g>
                  <path class="cls-71" d="M190.2,102.13c.39.8,1.69.78,2.44.99,1,1.42,3.08,2.27,4.37,3.4,1.68,1.73,2.43,3.65,1.95,2.97-1.58-.74-5.42-6.83-12.73-6.94s-13.69,1.18-19.4,5.12c-.53.37-1.18.64-1.57.84.83-1.65,2.74-2.4,4.55-3.36,5.83-3.07,13.61-3.97,20.38-3.02Z"/>
                  <path class="cls-150" d="M180.83,98c-1.82,4.59,7.96,1.24,9.37,4.13-6.78-.95-14.56-.06-20.38,3.02-1.82.96-3.73,1.71-4.55,3.36l-1.02.55c-4.39-3.99-4.2-7.01-1.06-12.3,6.17,5.66,10.71,2.91,17.65,1.24Z"/>
                  <path class="cls-7" d="M166.33,102.9c.19-.48.54.17.69.27.23.15.08.43-.07.47-.39.09-.91,0-.62-.74Z"/>
                </g>
              </g>
            </g>
          </g>
        </g>
      </g>
      <g>
        <path class="cls-282" d="M211.17,23.04c.15-.04.38.03.66.11.23.06.16.29.05,1.17-1.95.34-2.7,1.86-4.01,2.66-.55-.02-1.13-.11-1.66.05-.69.21-6.53,1.08-7.28-.82-.97,1.74-1.13,3.22-1.16,4.93,1.56.17,2.86-.84,4.69-.13-.78.49-1.78.72-1.66,1.75,1.11-.32,1.85-.68,2.56-.96.23.06.88-.13.56.41-.45.78-.03,1.7-.96,2.65,1.26-.26,2.18-.58,3.44.35-.63,1.19-1.65-.08-2.46.08.2,1.04-.16,1.92-.19,2.9l-.13,4.02c2.1.32,3.89.44,5.74.38.35-.09.35.26.35.49h-5.3c-.15.47-.05.74-.07.98.33,1.33-3.6-.56-3.88,1.44-.11.77.15,1.31-.49,1.75-.28.19-.53.28-1,.23-.05-.25.09-.52,0-.73-.13-.31-.54-.33-1.2-.23-.53.08,0,.51.22.74.33.37.59.18.98.22.18.9,1.29.6,1.71.02.32-.45.6-1.01.48-1.75-.13-.8,1.94-1.22,2.22-.23,1.23,2.52-1.08,6.47.91,6.77s3.75-.06,5.47.08c-.12.44.48.54.44.98h-5.28c-.13.32-.13.48-.09.59l-3.99.1c.36,1.3,1.55.86,1.61,1.64.34,1.56-.33,3.33.14,4.79l.62,1.92c.71-.48,7.24-.27,7.08.17.37,0,.42.27.4.57h-5.3c-.15.47-.05.74-.07.98-1.21-.35-2.92.67-4.04-.62-.35-.35-1.31.49-2.09,1.45,1.2.37,2.55.31,3.68.14.09.65.97.59,1.35.99-.64,2.36,1.09,3.11-1.51,5.76-.58.6.15.57.6.83.4.23.75-.06,1.16.2,1.09.6,3.54-.5,4.78-.44.17.18.03.58-.05.78-.36-.1-.73.09-.96.44-.11.18.03.5,0,.73-.17.02-12.26,1.15-7.81,1.95.84,1.08-.35,4.97.92,7.92-1.85.53-3.72,1.4-6.2.97-.44-.08-.68-.92-1.05-.53-.1.11-.16.33-.41.34-.47-19.67.51-39.39,2.86-58.97.06-.54.34-1.26.36-1.95.84.49,1.77.16,2.56.44,3.18,1.16,7.29,1.04,10.17-.98.46-.32,1.07-.57,1.55-.48Z"/>
        <path class="cls-204" d="M210.19,83.1c-1.67-.39-3.18.59-4.21,1.93-.54-.29-1.24-.64-1.58-.27-.15.16-.05.34-.32.59-.93.37-1.95.62-3.14.29.23-.9.85-.98.41-1.46-1.26-2.94-.07-6.83-.92-7.92,3.24-.84,6.67-.81,10.36-1.12.08,2.95-.02,5.49-.59,7.95Z"/>
        <path class="cls-209" d="M209.35,42.57c-1.85.06-3.63-.06-5.74-.38l.13-4.02c.03-.98.4-1.86.19-2.9.81-.16,1.82,1.12,2.46-.08-1.27-.92-2.18-.61-3.44-.35.93-.95.51-1.86.96-2.65,1.42-.19,2.86-.31,4.73-.19.4,3.73.72,7.15.71,10.56Z"/>
        <path class="cls-274" d="M210.28,62.51c.16-.44-6.37-.65-7.08-.17l-.62-1.92c-.47-1.46.2-3.23-.14-4.79,2.39-.68,4.96-.64,7.71-.38.21,2.62.55,4.96.13,7.25Z"/>
        <path class="cls-108" d="M210.42,66.48c-.04,1.42,1.04,5.99-1.17,5.89-1.24-.06-3.69,1.03-4.78.44-.41-.26-.76.03-1.16-.2-.45-.26-1.18-.24-.6-.83,2.6-2.65.87-3.39,1.51-5.76,1.13-.99,3.54-.47,4.79-.3.27.06.42,1.16.9.71.15-.14.24.08.5.06Z"/>
        <path class="cls-247" d="M209.75,52.34c-1.72-.13-3.52.22-5.47-.08s.32-4.25-.91-6.77c1.59-.72,4.37-.82,6.16-.28.65,2.19.5,4.97.22,7.13Z"/>
        <path class="cls-59" d="M206.2,27.03c-.37.5.31,1.02.78.9.26-.07.52-.27.85-.41.13,1.13.65,3.24-.33,3.43-.44.09-.86.2-1.22-.04.1-.59-.35-.55-.74-.57-.52-.03-.87.12-.74.67-.42.29-1.05.62-1.45.77-.71.27-1.46.64-2.56.96-.11-1.02.88-1.26,1.66-1.75-1.83-.71-3.13.3-4.69.13.03-1.71.19-3.19,1.16-4.93.74,1.9,6.59,1.04,7.28.82Z"/>
        <path class="cls-94" d="M207.86,26.97c.2.18.12.37-.03.55-.33.14-.59.34-.85.41-.47.12-1.15-.4-.78-.9.53-.16,1.11-.07,1.66-.05Z"/>
        <path class="cls-134" d="M198.96,47.46c-.39-.04-.65.14-.98-.22-.21-.23-.74-.66-.22-.74.65-.1,1.07-.08,1.2.23.09.22-.05.48,0,.73Z"/>
        <path class="cls-258" d="M196.94,7.88c-2.43,2.4-2.6,6.26-1.4,9.07,1.42,3.33,4.65,5.01,8.31,4.67.67,1.04,1.79,1.49,3.03,2.04-4.18,2.02-2.64.48-7.43.84-.06-1.22-1.48-.77-2.12-1.11-4.97-2.63-6.67-7.89-5.26-13.07.7-2.59,2.67-5.23,5.54-5.02l-.66,2.59Z"/>
        <g>
          <path class="cls-154" d="M201.34,2.05c-.3.47.56.82,1.01.78,3.34-.27,5.67,1.47,8.3,2.78.37,1.46,1.94,2.39,2.56,3.7.29,1.02.81,2.41.96,3.43.06,2.47-.62,4.95-1.43,7.29-.48,1.39-2.26,2.17-3.41,3.12-.24.21.07.47.29.38-2.88,2.02-6.99,2.14-10.17.98,4.8-.36,3.25,1.18,7.43-.84-1.25-.54-2.36-1-3.03-2.04,3.04-.18,5.45-2.72,6.39-5.28,1.21-3.3.5-6.85-2.18-9.11-3.19-2.7-8.23-2.19-11.12.66l.66-2.59c-2.87-.21-4.83,2.43-5.54,5.02-1.41,5.18.29,10.44,5.26,13.07.65.34,2.06-.11,2.12,1.11-.8-.29-1.72.04-2.56-.44-3.3-1.91-5.79-5.36-6-9.52-.31-6.06,4.48-11.83,10.45-12.49Z"/>
          <path class="cls-65" d="M211.52,5.4c-.35-.24-.52.34-.88.21-2.63-1.32-4.96-3.05-8.3-2.78-.45.04-1.31-.32-1.01-.78,3.84-.42,7.68.21,10.19,3.35Z"/>
          <path class="cls-65" d="M215.3,12.69c-.38-.12-.75-.05-1.14.05-.14-1.02-.67-2.41-.96-3.43.2.02.39.06.63.05.22,0,.36-.11.24-.41.45,1.4,1.1,2.23,1.22,3.74Z"/>
          <path class="cls-65" d="M213.61,20.07c-.81,1.21-1.82,1.9-2.45,2.97-.49-.08-1.09.16-1.55.48-.22.09-.53-.16-.29-.38,1.16-.94,2.93-1.73,3.41-3.12.28-.16.61-.11.88.04Z"/>
          <path class="cls-10" d="M199.47,5.06c-.42.75-1.29.73-1.64.21.09.13-.15-1.54,1.26-1.51.25-.12.81.01,1.05.11.2.08.43.24.31.77-.05.21-.36.15-.97.43Z"/>
        </g>
        <g>
          <path class="cls-248" d="M203.84,21.62c-3.66.34-6.88-1.34-8.31-4.67-1.2-2.81-1.03-6.67,1.4-9.07,2.89-2.85,7.92-3.35,11.12-.66,2.68,2.26,3.39,5.82,2.18,9.11-.94,2.57-3.35,5.11-6.39,5.28Z"/>
          <g>
            <path class="cls-197" d="M196.8,15.83c-1.42-4.31,1.29-8.17,5.64-8.77,3.36-.47,6.16,2.17,6.79,5.01.82,3.63-1.15,6.66-4.59,7.79-3,.99-6.64-.37-7.85-4.03Z"/>
            <path class="cls-22" d="M202.83,16.09c.28.48-.55.71-.43.87.21.28.71.35.77.2l.37-.91c.46-.1.36.64.61.82s.68-.11,1.22-.12c.77-.14.79.12.25.58l-.16,1.17c-.08.59-5.41,1.89-7.42-1.39-1.3-2.11-1.46-4.14-.22-6.2.62-1.02,1.26-2.35,2.6-1.94-.1-1.28.56-.67.55-.04-.01.56-.6.74-.79,1.24-.77.68-.88.95.19.99.63,3.58,1.27.47,1.56,3.81.02.29.58.34.91.92Z"/>
            <path class="cls-264" d="M205.38,14.73c-1.24.51-3.15-.78-3.34-1.94-.08-.49.57-1.69.83-2.09.65-.99,2.5-.1,3.15.69.59.72,1.06,2.64-.65,3.34Z"/>
          </g>
        </g>
      </g>
    </g>
  </g>
</svg>